<svg id="my-svg" width="100%" xmlns="http://www.w3.org/2000/svg" xmlns:xlink="http://www.w3.org/1999/xlink" class="flowchart" style="max-width: 2726.95px; background-color: transparent;" viewBox="0.0000019073486328125 0 2726.94873046875 762.1651000976562" role="graphics-document document" aria-roledescription="flowchart-v2"><style>#my-svg{font-family:"trebuchet ms",verdana,arial,sans-serif;font-size:16px;fill:#000000;}@keyframes edge-animation-frame{from{stroke-dashoffset:0;}}@keyframes dash{to{stroke-dashoffset:0;}}#my-svg .edge-animation-slow{stroke-dasharray:9,5!important;stroke-dashoffset:900;animation:dash 50s linear infinite;stroke-linecap:round;}#my-svg .edge-animation-fast{stroke-dasharray:9,5!important;stroke-dashoffset:900;animation:dash 20s linear infinite;stroke-linecap:round;}#my-svg .error-icon{fill:#552222;}#my-svg .error-text{fill:#552222;stroke:#552222;}#my-svg .edge-thickness-normal{stroke-width:1px;}#my-svg .edge-thickness-thick{stroke-width:3.5px;}#my-svg .edge-pattern-solid{stroke-dasharray:0;}#my-svg .edge-thickness-invisible{stroke-width:0;fill:none;}#my-svg .edge-pattern-dashed{stroke-dasharray:3;}#my-svg .edge-pattern-dotted{stroke-dasharray:2;}#my-svg .marker{fill:#666;stroke:#666;}#my-svg .marker.cross{stroke:#666;}#my-svg svg{font-family:"trebuchet ms",verdana,arial,sans-serif;font-size:16px;}#my-svg p{margin:0;}#my-svg .label{font-family:"trebuchet ms",verdana,arial,sans-serif;color:#000000;}#my-svg .cluster-label text{fill:#333;}#my-svg .cluster-label span{color:#333;}#my-svg .cluster-label span p{background-color:transparent;}#my-svg .label text,#my-svg span{fill:#000000;color:#000000;}#my-svg .node rect,#my-svg .node circle,#my-svg .node ellipse,#my-svg .node polygon,#my-svg .node path{fill:#eee;stroke:#999;stroke-width:1px;}#my-svg .rough-node .label text,#my-svg .node .label text,#my-svg .image-shape .label,#my-svg .icon-shape .label{text-anchor:middle;}#my-svg .node .katex path{fill:#000;stroke:#000;stroke-width:1px;}#my-svg .rough-node .label,#my-svg .node .label,#my-svg .image-shape .label,#my-svg .icon-shape .label{text-align:center;}#my-svg .node.clickable{cursor:pointer;}#my-svg .root .anchor path{fill:#666!important;stroke-width:0;stroke:#666;}#my-svg .arrowheadPath{fill:#333333;}#my-svg .edgePath .path{stroke:#666;stroke-width:1px;}#my-svg .flowchart-link{stroke:#666;fill:none;}#my-svg .edgeLabel{background-color:white;text-align:center;}#my-svg .edgeLabel p{background-color:white;}#my-svg .edgeLabel rect{opacity:0.5;background-color:white;fill:white;}#my-svg .labelBkg{background-color:rgba(255, 255, 255, 0.5);}#my-svg .cluster rect{fill:hsl(0, 0%, 98.9215686275%);stroke:#707070;stroke-width:1px;}#my-svg .cluster text{fill:#333;}#my-svg .cluster span{color:#333;}#my-svg div.mermaidTooltip{position:absolute;text-align:center;max-width:200px;padding:2px;font-family:"trebuchet ms",verdana,arial,sans-serif;font-size:12px;background:hsl(-160, 0%, 93.3333333333%);border:1px solid #707070;border-radius:2px;pointer-events:none;z-index:100;}#my-svg .flowchartTitleText{text-anchor:middle;font-size:18px;fill:#000000;}#my-svg rect.text{fill:none;stroke-width:0;}#my-svg .icon-shape,#my-svg .image-shape{background-color:white;text-align:center;}#my-svg .icon-shape p,#my-svg .image-shape p{background-color:white;padding:2px;}#my-svg .icon-shape .label rect,#my-svg .image-shape .label rect{opacity:0.5;background-color:white;fill:white;}#my-svg .label-icon{display:inline-block;height:1em;overflow:visible;vertical-align:-0.125em;}#my-svg .node .label-icon path{fill:currentColor;stroke:revert;stroke-width:revert;}#my-svg .node .neo-node{stroke:#999;}#my-svg [data-look="neo"].node rect,#my-svg [data-look="neo"].cluster rect,#my-svg [data-look="neo"].node polygon{stroke:url(#my-svg-gradient);filter:drop-shadow( 1px 2px 2px rgba(185,185,185,1));}#my-svg [data-look="neo"].swimlane.cluster rect{filter:none;}#my-svg [data-look="neo"].node path{stroke:url(#my-svg-gradient);stroke-width:1px;}#my-svg [data-look="neo"].node .outer-path{filter:drop-shadow( 1px 2px 2px rgba(185,185,185,1));}#my-svg [data-look="neo"].node .neo-line path{stroke:#999;filter:none;}#my-svg [data-look="neo"].node circle{stroke:url(#my-svg-gradient);filter:drop-shadow( 1px 2px 2px rgba(185,185,185,1));}#my-svg [data-look="neo"].node circle .state-start{fill:#000000;}#my-svg [data-look="neo"].icon-shape .icon{fill:url(#my-svg-gradient);filter:drop-shadow( 1px 2px 2px rgba(185,185,185,1));}#my-svg [data-look="neo"].icon-shape .icon-neo path{stroke:url(#my-svg-gradient);filter:drop-shadow( 1px 2px 2px rgba(185,185,185,1));}#my-svg :root{--mermaid-font-family:"trebuchet ms",verdana,arial,sans-serif;}#my-svg .user&gt;*{fill:rgb(238, 245, 255)!important;stroke:rgb(47, 111, 173)!important;color:rgb(23, 32, 42)!important;}#my-svg .user span{fill:rgb(238, 245, 255)!important;stroke:rgb(47, 111, 173)!important;color:rgb(23, 32, 42)!important;}#my-svg .user tspan{fill:rgb(23, 32, 42)!important;}#my-svg .python&gt;*{fill:rgb(232, 241, 251)!important;stroke:rgb(74, 144, 226)!important;color:rgb(23, 32, 42)!important;}#my-svg .python span{fill:rgb(232, 241, 251)!important;stroke:rgb(74, 144, 226)!important;color:rgb(23, 32, 42)!important;}#my-svg .python tspan{fill:rgb(23, 32, 42)!important;}#my-svg .session&gt;*{fill:rgb(238, 248, 238)!important;stroke:rgb(79, 138, 79)!important;color:rgb(23, 32, 42)!important;}#my-svg .session span{fill:rgb(238, 248, 238)!important;stroke:rgb(79, 138, 79)!important;color:rgb(23, 32, 42)!important;}#my-svg .session tspan{fill:rgb(23, 32, 42)!important;}#my-svg .data&gt;*{fill:rgb(255, 245, 223)!important;stroke:rgb(185, 133, 45)!important;color:rgb(23, 32, 42)!important;}#my-svg .data span{fill:rgb(255, 245, 223)!important;stroke:rgb(185, 133, 45)!important;color:rgb(23, 32, 42)!important;}#my-svg .data tspan{fill:rgb(23, 32, 42)!important;}</style><g><marker id="my-svg_flowchart-v2-pointEnd" class="marker flowchart-v2" viewBox="0 0 10 10" refX="5" refY="5" markerUnits="userSpaceOnUse" markerWidth="8" markerHeight="8" orient="auto"><path d="M 0 0 L 10 5 L 0 10 z" class="arrowMarkerPath" style="stroke-width: 1; stroke-dasharray: 1, 0;"/></marker><marker id="my-svg_flowchart-v2-pointStart" class="marker flowchart-v2" viewBox="0 0 10 10" refX="4.5" refY="5" markerUnits="userSpaceOnUse" markerWidth="8" markerHeight="8" orient="auto"><path d="M 0 5 L 10 10 L 10 0 z" class="arrowMarkerPath" style="stroke-width: 1; stroke-dasharray: 1, 0;"/></marker><marker id="my-svg_flowchart-v2-pointEnd-margin" class="marker flowchart-v2" viewBox="0 0 11.5 14" refX="11.5" refY="7" markerUnits="userSpaceOnUse" markerWidth="10.5" markerHeight="14" orient="auto"><path d="M 0 0 L 11.5 7 L 0 14 z" class="arrowMarkerPath" style="stroke-width: 0; stroke-dasharray: 1, 0;"/></marker><marker id="my-svg_flowchart-v2-pointStart-margin" class="marker flowchart-v2" viewBox="0 0 11.5 14" refX="1" refY="7" markerUnits="userSpaceOnUse" markerWidth="11.5" markerHeight="14" orient="auto"><polygon points="0,7 11.5,14 11.5,0" class="arrowMarkerPath" style="stroke-width: 0; stroke-dasharray: 1, 0;"/></marker><marker id="my-svg_flowchart-v2-circleEnd" class="marker flowchart-v2" viewBox="0 0 10 10" refX="11" refY="5" markerUnits="userSpaceOnUse" markerWidth="11" markerHeight="11" orient="auto"><circle cx="5" cy="5" r="5" class="arrowMarkerPath" style="stroke-width: 1; stroke-dasharray: 1, 0;"/></marker><marker id="my-svg_flowchart-v2-circleStart" class="marker flowchart-v2" viewBox="0 0 10 10" refX="-1" refY="5" markerUnits="userSpaceOnUse" markerWidth="11" markerHeight="11" orient="auto"><circle cx="5" cy="5" r="5" class="arrowMarkerPath" style="stroke-width: 1; stroke-dasharray: 1, 0;"/></marker><marker id="my-svg_flowchart-v2-circleEnd-margin" class="marker flowchart-v2" viewBox="0 0 10 10" refY="5" refX="12.25" markerUnits="userSpaceOnUse" markerWidth="14" markerHeight="14" orient="auto"><circle cx="5" cy="5" r="5" class="arrowMarkerPath" style="stroke-width: 0; stroke-dasharray: 1, 0;"/></marker><marker id="my-svg_flowchart-v2-circleStart-margin" class="marker flowchart-v2" viewBox="0 0 10 10" refX="-2" refY="5" markerUnits="userSpaceOnUse" markerWidth="14" markerHeight="14" orient="auto"><circle cx="5" cy="5" r="5" class="arrowMarkerPath" style="stroke-width: 0; stroke-dasharray: 1, 0;"/></marker><marker id="my-svg_flowchart-v2-crossEnd" class="marker cross flowchart-v2" viewBox="0 0 11 11" refX="12" refY="5.2" markerUnits="userSpaceOnUse" markerWidth="11" markerHeight="11" orient="auto"><path d="M 1,1 l 9,9 M 10,1 l -9,9" class="arrowMarkerPath" style="stroke-width: 2; stroke-dasharray: 1, 0;"/></marker><marker id="my-svg_flowchart-v2-crossStart" class="marker cross flowchart-v2" viewBox="0 0 11 11" refX="-1" refY="5.2" markerUnits="userSpaceOnUse" markerWidth="11" markerHeight="11" orient="auto"><path d="M 1,1 l 9,9 M 10,1 l -9,9" class="arrowMarkerPath" style="stroke-width: 2; stroke-dasharray: 1, 0;"/></marker><marker id="my-svg_flowchart-v2-crossEnd-margin" class="marker cross flowchart-v2" viewBox="0 0 15 15" refX="17.7" refY="7.5" markerUnits="userSpaceOnUse" markerWidth="12" markerHeight="12" orient="auto"><path d="M 1,1 L 14,14 M 1,14 L 14,1" class="arrowMarkerPath" style="stroke-width: 2.5;"/></marker><marker id="my-svg_flowchart-v2-crossStart-margin" class="marker cross flowchart-v2" viewBox="0 0 15 15" refX="-3.5" refY="7.5" markerUnits="userSpaceOnUse" markerWidth="12" markerHeight="12" orient="auto"><path d="M 1,1 L 14,14 M 1,14 L 14,1" class="arrowMarkerPath" style="stroke-width: 2.5; stroke-dasharray: 1, 0;"/></marker><g class="root"><g class="clusters"><g class="cluster" id="my-svg-Session" data-look="classic"><rect style="" x="1524.4799613952637" y="8" width="1194.46875" height="317.1650981903076"/><g class="cluster-label" transform="translate(2035.4487113952637, 8)"><foreignObject width="172.53125" height="24"><div xmlns="http://www.w3.org/1999/xhtml" style="display: table-cell; white-space: nowrap; line-height: 1.5;"><span class="nodeLabel"><p>Per-session execution</p></span></div></foreignObject></g></g><g class="cluster" id="my-svg-Web" data-look="classic"><rect style="" x="795.8549613952637" y="345.1650981903076" width="993.625" height="390"/><g class="cluster-label" transform="translate(1196.6127738952637, 345.1650981903076)"><foreignObject width="192.109375" height="24"><div xmlns="http://www.w3.org/1999/xhtml" style="display: table-cell; white-space: nowrap; line-height: 1.5;"><span class="nodeLabel"><p>Python ASGI application</p></span></div></foreignObject></g></g></g><g class="edgePaths"><path d="M69.699,541.617L73.782,541.534C77.865,541.45,86.032,541.284,93.615,541.2C101.199,541.117,108.199,541.117,111.699,541.117L115.199,541.117" id="my-svg-L_User_Browser_0" class="edge-thickness-normal edge-pattern-solid edge-thickness-normal edge-pattern-solid flowchart-link" style=";" data-edge="true" data-et="edge" data-id="L_User_Browser_0" data-points="W3sieCI6NjkuNjk4NzEyNDMxODIzNTQsInkiOjU0MS42MTY5NjI0MzI4NjEzfSx7IngiOjk0LjE5ODcxMTM5NTI2MzY3LCJ5Ijo1NDEuMTE2OTYyNDMyODYxM30seyJ4IjoxMTkuMTk4NzExMzk1MjYzNjcsInkiOjU0MS4xMTY5NjI0MzI4NjEzfV0=" data-look="classic" marker-end="url(#my-svg_flowchart-v2-pointEnd)"/><path d="M350.607,490.117L359.539,485.625C368.471,481.133,386.335,472.149,415.922,467.657C445.509,463.165,486.819,463.165,538.028,463.165C589.238,463.165,650.347,463.165,694.968,463.165C739.589,463.165,767.722,463.165,793.247,465.974C818.771,468.782,841.687,474.399,853.145,477.207L864.603,480.016" id="my-svg-L_Browser_API_0" class="edge-thickness-normal edge-pattern-solid edge-thickness-normal edge-pattern-solid flowchart-link" style=";" data-edge="true" data-et="edge" data-id="L_Browser_API_0" data-points="W3sieCI6MzUwLjYwNzQ0NzExNzEzMDksInkiOjQ5MC4xMTY5NjI0MzI4NjEzfSx7IngiOjQwNC4xOTg3MTEzOTUyNjM3LCJ5Ijo0NjMuMTY1MDk4MTkwMzA3Nn0seyJ4Ijo1MjguMTI4Mzk4ODk1MjYzNywieSI6NDYzLjE2NTA5ODE5MDMwNzZ9LHsieCI6NzExLjQ1NjUyMzg5NTI2MzcsInkiOjQ2My4xNjUwOTgxOTAzMDc2fSx7IngiOjc5NS44NTQ5NjEzOTUyNjM3LCJ5Ijo0NjMuMTY1MDk4MTkwMzA3Nn0seyJ4Ijo4NjguNDg3NzczODk1MjYzNywieSI6NDgwLjk2ODA2ODg5NzI3Mzh9XQ==" data-look="classic" marker-end="url(#my-svg_flowchart-v2-pointEnd)"/><path d="M356.737,593.879L364.647,597.76C372.558,601.641,388.378,609.403,416.943,613.284C445.509,617.165,486.819,617.165,538.028,617.165C589.238,617.165,650.347,617.165,694.968,617.165C739.589,617.165,767.722,617.165,785.291,617.489C802.861,617.813,809.866,618.46,813.369,618.784L816.872,619.108" id="my-svg-L_Browser_WS_0" class="edge-thickness-normal edge-pattern-solid edge-thickness-normal edge-pattern-solid flowchart-link" style=";" data-edge="true" data-et="edge" data-id="L_Browser_WS_0" data-points="W3sieCI6MzUzLjE0NjAzMjY3MDk5ODksInkiOjU5Mi4xMTY5NjI0MzI4NjEzfSx7IngiOjQwNC4xOTg3MTEzOTUyNjM3LCJ5Ijo2MTcuMTY1MDk4MTkwMzA3Nn0seyJ4Ijo1MjguMTI4Mzk4ODk1MjYzNywieSI6NjE3LjE2NTA5ODE5MDMwNzZ9LHsieCI6NzExLjQ1NjUyMzg5NTI2MzcsInkiOjYxNy4xNjUwOTgxOTAzMDc2fSx7IngiOjc5NS44NTQ5NjEzOTUyNjM3LCJ5Ijo2MTcuMTY1MDk4MTkwMzA3Nn0seyJ4Ijo4MjAuODU0OTYxMzk1MjYzNywieSI6NjE5LjQ3NTcyNjc3ODI0NzN9XQ==" data-look="classic" marker-start="url(#my-svg_flowchart-v2-pointStart)" marker-end="url(#my-svg_flowchart-v2-pointEnd)"/><path d="M1019.489,461.165L1032.535,454.165C1045.58,447.165,1071.671,433.165,1089.698,426.165C1107.725,419.165,1117.688,419.165,1122.67,419.165L1127.652,419.165" id="my-svg-L_API_Detect_0" class="edge-thickness-normal edge-pattern-solid edge-thickness-normal edge-pattern-solid flowchart-link" style=";" data-edge="true" data-et="edge" data-id="L_API_Detect_0" data-points="W3sieCI6MTAxOS40ODkyMjA2NTQ1MjI5LCJ5Ijo0NjEuMTY1MDk4MTkwMzA3Nn0seyJ4IjoxMDk3Ljc2MTIxMTM5NTI2MzcsInkiOjQxOS4xNjUwOTgxOTAzMDc2fSx7IngiOjExMzEuNjUxODM2Mzk1MjYzNywieSI6NDE5LjE2NTA5ODE5MDMwNzZ9XQ==" data-look="classic" marker-end="url(#my-svg_flowchart-v2-pointEnd)"/><path d="M1345.542,419.165L1361.195,419.165C1376.847,419.165,1408.152,419.165,1437.975,419.165C1467.798,419.165,1496.139,419.165,1527.326,379.392C1558.514,339.618,1592.547,260.072,1609.564,220.298L1626.581,180.525" id="my-svg-L_Detect_Workspace_0" class="edge-thickness-normal edge-pattern-solid edge-thickness-normal edge-pattern-solid flowchart-link" style=";" data-edge="true" data-et="edge" data-id="L_Detect_Workspace_0" data-points="W3sieCI6MTM0NS41NDI0NjEzOTUyNjM3LCJ5Ijo0MTkuMTY1MDk4MTkwMzA3Nn0seyJ4IjoxNDM5LjQ1NjUyMzg5NTI2MzcsInkiOjQxOS4xNjUwOTgxOTAzMDc2fSx7IngiOjE1MjQuNDc5OTYxMzk1MjYzNywieSI6NDE5LjE2NTA5ODE5MDMwNzZ9LHsieCI6MTYyOC4xNTQyNjIyMjA2OTcsInkiOjE3Ni44NDc1MjE1MTY3OTc2Nn1d" data-look="classic" marker-end="url(#my-svg_flowchart-v2-pointEnd)"/><path d="M1025.128,507.404L1037.234,508.523C1049.339,509.642,1073.55,511.879,1109.128,512.998C1144.707,514.117,1191.652,514.117,1248.601,514.117C1305.55,514.117,1372.503,514.117,1420.151,514.117C1467.798,514.117,1496.139,514.117,1532.393,514.117C1568.647,514.117,1612.813,514.117,1656.98,514.117C1701.147,514.117,1745.313,514.117,1783.863,458.125C1822.412,402.133,1855.345,290.149,1889.371,227.532C1923.397,164.916,1958.516,151.667,1976.076,145.042L1993.636,138.417" id="my-svg-L_API_SBT_0" class="edge-thickness-normal edge-pattern-solid edge-thickness-normal edge-pattern-solid flowchart-link" style=";" data-edge="true" data-et="edge" data-id="L_API_SBT_0" data-points="W3sieCI6MTAyNS4xMjgzOTg4OTUyNjM3LCJ5Ijo1MDcuNDAzODY0MzEzNDYyNjN9LHsieCI6MTA5Ny43NjEyMTEzOTUyNjM3LCJ5Ijo1MTQuMTE2OTYyNDMyODYxM30seyJ4IjoxMjM4LjU5NzE0ODg5NTI2MzcsInkiOjUxNC4xMTY5NjI0MzI4NjEzfSx7IngiOjE0MzkuNDU2NTIzODk1MjYzNywieSI6NTE0LjExNjk2MjQzMjg2MTN9LHsieCI6MTUyNC40Nzk5NjEzOTUyNjM3LCJ5Ijo1MTQuMTE2OTYyNDMyODYxM30seyJ4IjoxNjU2Ljk3OTk2MTM5NTI2MzcsInkiOjUxNC4xMTY5NjI0MzI4NjEzfSx7IngiOjE3ODkuNDc5OTYxMzk1MjYzNywieSI6NTE0LjExNjk2MjQzMjg2MTN9LHsieCI6MTg4OC4yNzY4MzYzOTUyNjM3LCJ5IjoxNzguMTY1MDk4MTkwMzA3NjJ9LHsieCI6MTk5Ny4zNzgzOTg4OTUyNjM3LCJ5IjoxMzcuMDA1NDQwNDk3NjEyNDh9XQ==" data-look="classic" marker-end="url(#my-svg_flowchart-v2-pointEnd)"/><path d="M1764.48,110.213L1768.647,110.213C1772.813,110.213,1781.147,110.213,1801.779,110.213C1822.412,110.213,1855.345,110.213,1889.328,110.312C1923.311,110.411,1958.345,110.608,1975.862,110.707L1993.378,110.805" id="my-svg-L_Workspace_SBT_0" class="edge-thickness-normal edge-pattern-solid edge-thickness-normal edge-pattern-solid flowchart-link" style=";" data-edge="true" data-et="edge" data-id="L_Workspace_SBT_0" data-points="W3sieCI6MTc2NC40Nzk5NjEzOTUyNjM3LCJ5IjoxMTAuMjEzMjMzOTQ3NzUzOX0seyJ4IjoxNzg5LjQ3OTk2MTM5NTI2MzcsInkiOjExMC4yMTMyMzM5NDc3NTM5fSx7IngiOjE4ODguMjc2ODM2Mzk1MjYzNywieSI6MTEwLjIxMzIzMzk0Nzc1Mzl9LHsieCI6MTk5Ny4zNzgzOTg4OTUyNjM3LCJ5IjoxMTAuODI3OTk4ODcxMTU1OTF9XQ==" data-look="classic" marker-end="url(#my-svg_flowchart-v2-pointEnd)"/><path d="M2134.113,111.213L2139.997,111.213C2145.881,111.213,2157.649,111.213,2167.033,111.213C2176.417,111.213,2183.417,111.213,2186.917,111.213L2190.417,111.213" id="my-svg-L_SBT_Test_0" class="edge-thickness-normal edge-pattern-solid edge-thickness-normal edge-pattern-solid flowchart-link" style=";" data-edge="true" data-et="edge" data-id="L_SBT_Test_0" data-points="W3sieCI6MjEzNC4xMTI3NzM4OTUyNjM3LCJ5IjoxMTEuMjEzMjMzOTQ3NzUzOX0seyJ4IjoyMTY5LjQxNzQ2MTM5NTI2MzcsInkiOjExMS4yMTMyMzM5NDc3NTM5fSx7IngiOjIxOTQuNDE3NDYxMzk1MjYzNywieSI6MTExLjIxMzIzMzk0Nzc1Mzl9XQ==" data-look="classic" marker-end="url(#my-svg_flowchart-v2-pointEnd)"/><path d="M2454.417,98.543L2458.584,98.137C2462.751,97.731,2471.084,96.919,2478.751,96.513C2486.417,96.107,2493.417,96.107,2496.917,96.107L2500.417,96.107" id="my-svg-L_Test_Core_0" class="edge-thickness-normal edge-pattern-solid edge-thickness-normal edge-pattern-solid flowchart-link" style=";" data-edge="true" data-et="edge" data-id="L_Test_Core_0" data-points="W3sieCI6MjQ1NC40MTc0NjEzOTUyNjM3LCJ5Ijo5OC41NDMxNjgwOTg2OTU4Mn0seyJ4IjoyNDc5LjQxNzQ2MTM5NTI2MzcsInkiOjk2LjEwNjYxNjk3Mzg3Njk1fSx7IngiOjI1MDQuNDE3NDYxMzk1MjYzNywieSI6OTYuMTA2NjE2OTczODc2OTV9XQ==" data-look="classic" marker-end="url(#my-svg_flowchart-v2-pointEnd)"/><path d="M1072.761,606.126L1076.928,605.299C1081.095,604.472,1089.428,602.819,1097.109,602.739C1104.79,602.66,1111.82,604.155,1115.334,604.902L1118.849,605.65" id="my-svg-L_WS_Enrich_0" class="edge-thickness-normal edge-pattern-solid edge-thickness-normal edge-pattern-solid flowchart-link" style=";" data-edge="true" data-et="edge" data-id="L_WS_Enrich_0" data-points="W3sieCI6MTA3Mi43NjEyMTEzOTUyNjM3LCJ5Ijo2MDYuMTI1NTU1OTg4NDc0fSx7IngiOjEwOTcuNzYxMjExMzk1MjYzNywieSI6NjAxLjE2NTA5ODE5MDMwNzZ9LHsieCI6MTEyMi43NjEyMTEzOTUyNjM3LCJ5Ijo2MDYuNDgxODk4ODU0NjU0fV0=" data-look="classic" marker-end="url(#my-svg_flowchart-v2-pointEnd)"/><path d="M1354.433,631.117L1368.604,631.117C1382.774,631.117,1411.115,631.117,1439.457,631.117C1467.798,631.117,1496.139,631.117,1518.347,631.117C1540.555,631.117,1556.631,631.117,1564.669,631.117L1572.707,631.117" id="my-svg-L_Enrich_Bridge_0" class="edge-thickness-normal edge-pattern-solid edge-thickness-normal edge-pattern-solid flowchart-link" style=";" data-edge="true" data-et="edge" data-id="L_Enrich_Bridge_0" data-points="W3sieCI6MTM1NC40MzMwODYzOTUyNjM3LCJ5Ijo2MzEuMTE2OTYyNDMyODYxM30seyJ4IjoxNDM5LjQ1NjUyMzg5NTI2MzcsInkiOjYzMS4xMTY5NjI0MzI4NjEzfSx7IngiOjE1MjQuNDc5OTYxMzk1MjYzNywieSI6NjMxLjExNjk2MjQzMjg2MTN9LHsieCI6MTU3Ni43MDY1MjM4OTUyNjM3LCJ5Ijo2MzEuMTE2OTYyNDMyODYxM31d" data-look="classic" marker-end="url(#my-svg_flowchart-v2-pointEnd)"/><path d="M1741.253,631.117L1749.291,631.117C1757.329,631.117,1773.404,631.117,1797.908,572.792C1822.412,514.466,1855.345,397.816,1901.389,339.49C1947.433,281.165,2006.589,281.165,2053.446,281.165C2100.303,281.165,2134.86,281.165,2169.771,261.832C2204.681,242.5,2239.945,203.834,2257.577,184.501L2275.209,165.169" id="my-svg-L_Bridge_Test_0" class="edge-thickness-normal edge-pattern-solid edge-thickness-normal edge-pattern-solid flowchart-link" style=";" data-edge="true" data-et="edge" data-id="L_Bridge_Test_0" data-points="W3sieCI6MTczNy4yNTMzOTg4OTUyNjM3LCJ5Ijo2MzEuMTE2OTYyNDMyODYxM30seyJ4IjoxNzg5LjQ3OTk2MTM5NTI2MzcsInkiOjYzMS4xMTY5NjI0MzI4NjEzfSx7IngiOjE4ODguMjc2ODM2Mzk1MjYzNywieSI6MjgxLjE2NTA5ODE5MDMwNzZ9LHsieCI6MjA2NS43NDU1ODYzOTUyNjM3LCJ5IjoyODEuMTY1MDk4MTkwMzA3Nn0seyJ4IjoyMTY5LjQxNzQ2MTM5NTI2MzcsInkiOjI4MS4xNjUwOTgxOTAzMDc2fSx7IngiOjIyNzcuOTA0MjkxMTIwNjYxLCJ5IjoxNjIuMjEzMjMzOTQ3NzUzOX1d" data-look="classic" marker-start="url(#my-svg_flowchart-v2-pointStart)" marker-end="url(#my-svg_flowchart-v2-pointEnd)"/><path d="M1142.317,670.117L1134.891,673.125C1127.465,676.133,1112.613,682.149,1097.851,682.385C1083.09,682.62,1068.418,677.076,1061.082,674.303L1053.746,671.531" id="my-svg-L_Enrich_WS_0" class="edge-thickness-normal edge-pattern-solid edge-thickness-normal edge-pattern-solid flowchart-link" style=";" data-edge="true" data-et="edge" data-id="L_Enrich_WS_0" data-points="W3sieCI6MTE0Mi4zMTcwMjUyODQzMzQ1LCJ5Ijo2NzAuMTE2OTYyNDMyODYxM30seyJ4IjoxMDk3Ljc2MTIxMTM5NTI2MzcsInkiOjY4OC4xNjUwOTgxOTAzMDc2fSx7IngiOjEwNTAuMDA0NjU1MzQyNDE5MywieSI6NjcwLjExNjk2MjQzMjg2MTN9XQ==" data-look="classic" marker-end="url(#my-svg_flowchart-v2-pointEnd)"/><path d="M2432.777,162.213L2440.55,165.872C2448.324,169.531,2463.871,176.848,2479.808,183.438C2495.746,190.028,2512.074,195.89,2520.239,198.821L2528.403,201.753" id="my-svg-L_Test_VCD_0" class="edge-thickness-normal edge-pattern-solid edge-thickness-normal edge-pattern-solid flowchart-link" style=";" data-edge="true" data-et="edge" data-id="L_Test_VCD_0" data-points="W3sieCI6MjQzMi43NzY1ODM5NzY2NTY2LCJ5IjoxNjIuMjEzMjMzOTQ3NzUzOX0seyJ4IjoyNDc5LjQxNzQ2MTM5NTI2MzcsInkiOjE4NC4xNjUwOTgxOTAzMDc2Mn0seyJ4IjoyNTMyLjE2NzQ2MTM5NTI2MzcsInkiOjIwMy4xMDQxNzE5MDE5ODQwN31d" data-look="classic" marker-end="url(#my-svg_flowchart-v2-pointEnd)"/><path d="M1025.128,528.182L1037.234,532.513C1049.339,536.843,1073.55,545.504,1109.128,549.835C1144.707,554.165,1191.652,554.165,1248.601,554.165C1305.55,554.165,1372.503,554.165,1420.151,554.165C1467.798,554.165,1496.139,554.165,1532.393,554.165C1568.647,554.165,1612.813,554.165,1656.98,554.165C1701.147,554.165,1745.313,554.165,1783.863,501.332C1822.412,448.498,1855.345,342.832,1901.389,289.998C1947.433,237.165,2006.589,237.165,2053.446,237.165C2100.303,237.165,2134.86,237.165,2177.972,237.165C2221.084,237.165,2272.751,237.165,2324.417,237.165C2376.084,237.165,2427.751,237.165,2461.711,236.486C2495.672,235.808,2511.927,234.451,2520.054,233.772L2528.181,233.093" id="my-svg-L_API_VCD_0" class="edge-thickness-normal edge-pattern-solid edge-thickness-normal edge-pattern-solid flowchart-link" style=";" data-edge="true" data-et="edge" data-id="L_API_VCD_0" data-points="W3sieCI6MTAyNS4xMjgzOTg4OTUyNjM3LCJ5Ijo1MjguMTgyMzg0MTg1NTQ2Mn0seyJ4IjoxMDk3Ljc2MTIxMTM5NTI2MzcsInkiOjU1NC4xNjUwOTgxOTAzMDc2fSx7IngiOjEyMzguNTk3MTQ4ODk1MjYzNywieSI6NTU0LjE2NTA5ODE5MDMwNzZ9LHsieCI6MTQzOS40NTY1MjM4OTUyNjM3LCJ5Ijo1NTQuMTY1MDk4MTkwMzA3Nn0seyJ4IjoxNTI0LjQ3OTk2MTM5NTI2MzcsInkiOjU1NC4xNjUwOTgxOTAzMDc2fSx7IngiOjE2NTYuOTc5OTYxMzk1MjYzNywieSI6NTU0LjE2NTA5ODE5MDMwNzZ9LHsieCI6MTc4OS40Nzk5NjEzOTUyNjM3LCJ5Ijo1NTQuMTY1MDk4MTkwMzA3Nn0seyJ4IjoxODg4LjI3NjgzNjM5NTI2MzcsInkiOjIzNy4xNjUwOTgxOTAzMDc2Mn0seyJ4IjoyMDY1Ljc0NTU4NjM5NTI2MzcsInkiOjIzNy4xNjUwOTgxOTAzMDc2Mn0seyJ4IjoyMTY5LjQxNzQ2MTM5NTI2MzcsInkiOjIzNy4xNjUwOTgxOTAzMDc2Mn0seyJ4IjoyMzI0LjQxNzQ2MTM5NTI2MzcsInkiOjIzNy4xNjUwOTgxOTAzMDc2Mn0seyJ4IjoyNDc5LjQxNzQ2MTM5NTI2MzcsInkiOjIzNy4xNjUwOTgxOTAzMDc2Mn0seyJ4IjoyNTMyLjE2NzQ2MTM5NTI2MzcsInkiOjIzMi43NjA2NjI0NDM0MDYxMn1d" data-look="classic" marker-end="url(#my-svg_flowchart-v2-pointEnd)"/><path d="M294.617,592.117L312.881,612.625C331.144,633.133,367.672,674.149,389.435,694.657C411.199,715.165,418.199,715.165,421.699,715.165L425.199,715.165" id="my-svg-L_Browser_Surfer_0" class="edge-thickness-normal edge-pattern-solid edge-thickness-normal edge-pattern-solid flowchart-link" style=";" data-edge="true" data-et="edge" data-id="L_Browser_Surfer_0" data-points="W3sieCI6Mjk0LjYxNzE4MTIwODc4OTM2LCJ5Ijo1OTIuMTE2OTYyNDMyODYxM30seyJ4Ijo0MDQuMTk4NzExMzk1MjYzNywieSI6NzE1LjE2NTA5ODE5MDMwNzZ9LHsieCI6NDI5LjE5ODcxMTM5NTI2MzcsInkiOjcxNS4xNjUwOTgxOTAzMDc2fV0=" data-look="classic" marker-end="url(#my-svg_flowchart-v2-pointEnd)"/><path d="M627.058,715.165L641.124,715.165C655.191,715.165,683.324,715.165,711.457,715.165C739.589,715.165,767.722,715.165,802.001,686.377C836.279,657.59,876.703,600.014,896.915,571.227L917.127,542.439" id="my-svg-L_Surfer_API_0" class="edge-thickness-normal edge-pattern-solid edge-thickness-normal edge-pattern-solid flowchart-link" style=";" data-edge="true" data-et="edge" data-id="L_Surfer_API_0" data-points="W3sieCI6NjI3LjA1ODA4NjM5NTI2MzcsInkiOjcxNS4xNjUwOTgxOTAzMDc2fSx7IngiOjcxMS40NTY1MjM4OTUyNjM3LCJ5Ijo3MTUuMTY1MDk4MTkwMzA3Nn0seyJ4Ijo3OTUuODU0OTYxMzk1MjYzNywieSI6NzE1LjE2NTA5ODE5MDMwNzZ9LHsieCI6OTE5LjQyNTg5MTYyNzgyMTgsInkiOjUzOS4xNjUwOTgxOTAzMDc2fV0=" data-look="classic" marker-end="url(#my-svg_flowchart-v2-pointEnd)"/></g><g class="edgeLabels"><g class="edgeLabel"><g class="label" data-id="L_User_Browser_0" transform="translate(0, 0)"><foreignObject width="0" height="0"><div xmlns="http://www.w3.org/1999/xhtml" class="labelBkg" style="display: table-cell; white-space: nowrap; line-height: 1.5; max-width: 200px; text-align: center;"><span class="edgeLabel"></span></div></foreignObject></g></g><g class="edgeLabel" transform="translate(528.1283988952637, 463.1650981903076)"><g class="label" data-id="L_Browser_API_0" transform="translate(-78.9140625, -24)"><foreignObject width="157.828125" height="48"><div xmlns="http://www.w3.org/1999/xhtml" class="labelBkg" style="display: table-cell; white-space: nowrap; line-height: 1.5; max-width: 200px; text-align: center;"><span class="edgeLabel"><p>upload and compile<br />HTTP/JSON</p></span></div></foreignObject></g></g><g class="edgeLabel" transform="translate(528.1283988952637, 617.1650981903076)"><g class="label" data-id="L_Browser_WS_0" transform="translate(-83.9453125, -24)"><foreignObject width="167.890625" height="48"><div xmlns="http://www.w3.org/1999/xhtml" class="labelBkg" style="display: table-cell; white-space: nowrap; line-height: 1.5; max-width: 200px; text-align: center;"><span class="edgeLabel"><p>commands, logs,<br />processed snapshots</p></span></div></foreignObject></g></g><g class="edgeLabel"><g class="label" data-id="L_API_Detect_0" transform="translate(0, 0)"><foreignObject width="0" height="0"><div xmlns="http://www.w3.org/1999/xhtml" class="labelBkg" style="display: table-cell; white-space: nowrap; line-height: 1.5; max-width: 200px; text-align: center;"><span class="edgeLabel"></span></div></foreignObject></g></g><g class="edgeLabel"><g class="label" data-id="L_Detect_Workspace_0" transform="translate(0, 0)"><foreignObject width="0" height="0"><div xmlns="http://www.w3.org/1999/xhtml" class="labelBkg" style="display: table-cell; white-space: nowrap; line-height: 1.5; max-width: 200px; text-align: center;"><span class="edgeLabel"></span></div></foreignObject></g></g><g class="edgeLabel" transform="translate(1439.4565238952637, 514.1169624328613)"><g class="label" data-id="L_API_SBT_0" transform="translate(-60.0234375, -12)"><foreignObject width="120.046875" height="24"><div xmlns="http://www.w3.org/1999/xhtml" class="labelBkg" style="display: table-cell; white-space: nowrap; line-height: 1.5; max-width: 200px; text-align: center;"><span class="edgeLabel"><p>launch process</p></span></div></foreignObject></g></g><g class="edgeLabel"><g class="label" data-id="L_Workspace_SBT_0" transform="translate(0, 0)"><foreignObject width="0" height="0"><div xmlns="http://www.w3.org/1999/xhtml" class="labelBkg" style="display: table-cell; white-space: nowrap; line-height: 1.5; max-width: 200px; text-align: center;"><span class="edgeLabel"></span></div></foreignObject></g></g><g class="edgeLabel"><g class="label" data-id="L_SBT_Test_0" transform="translate(0, 0)"><foreignObject width="0" height="0"><div xmlns="http://www.w3.org/1999/xhtml" class="labelBkg" style="display: table-cell; white-space: nowrap; line-height: 1.5; max-width: 200px; text-align: center;"><span class="edgeLabel"></span></div></foreignObject></g></g><g class="edgeLabel"><g class="label" data-id="L_Test_Core_0" transform="translate(0, 0)"><foreignObject width="0" height="0"><div xmlns="http://www.w3.org/1999/xhtml" class="labelBkg" style="display: table-cell; white-space: nowrap; line-height: 1.5; max-width: 200px; text-align: center;"><span class="edgeLabel"></span></div></foreignObject></g></g><g class="edgeLabel"><g class="label" data-id="L_WS_Enrich_0" transform="translate(0, 0)"><foreignObject width="0" height="0"><div xmlns="http://www.w3.org/1999/xhtml" class="labelBkg" style="display: table-cell; white-space: nowrap; line-height: 1.5; max-width: 200px; text-align: center;"><span class="edgeLabel"></span></div></foreignObject></g></g><g class="edgeLabel"><g class="label" data-id="L_Enrich_Bridge_0" transform="translate(0, 0)"><foreignObject width="0" height="0"><div xmlns="http://www.w3.org/1999/xhtml" class="labelBkg" style="display: table-cell; white-space: nowrap; line-height: 1.5; max-width: 200px; text-align: center;"><span class="edgeLabel"></span></div></foreignObject></g></g><g class="edgeLabel" transform="translate(2065.7455863952637, 281.1650981903076)"><g class="label" data-id="L_Bridge_Test_0" transform="translate(-78.671875, -24)"><foreignObject width="157.34375" height="48"><div xmlns="http://www.w3.org/1999/xhtml" class="labelBkg" style="display: table-cell; white-space: nowrap; line-height: 1.5; max-width: 200px; text-align: center;"><span class="edgeLabel"><p>line commands and<br />JSON snapshots</p></span></div></foreignObject></g></g><g class="edgeLabel"><g class="label" data-id="L_Enrich_WS_0" transform="translate(0, 0)"><foreignObject width="0" height="0"><div xmlns="http://www.w3.org/1999/xhtml" class="labelBkg" style="display: table-cell; white-space: nowrap; line-height: 1.5; max-width: 200px; text-align: center;"><span class="edgeLabel"></span></div></foreignObject></g></g><g class="edgeLabel"><g class="label" data-id="L_Test_VCD_0" transform="translate(0, 0)"><foreignObject width="0" height="0"><div xmlns="http://www.w3.org/1999/xhtml" class="labelBkg" style="display: table-cell; white-space: nowrap; line-height: 1.5; max-width: 200px; text-align: center;"><span class="edgeLabel"></span></div></foreignObject></g></g><g class="edgeLabel" transform="translate(1888.2768363952637, 237.16509819030762)"><g class="label" data-id="L_API_VCD_0" transform="translate(-73.796875, -12)"><foreignObject width="147.59375" height="24"><div xmlns="http://www.w3.org/1999/xhtml" class="labelBkg" style="display: table-cell; white-space: nowrap; line-height: 1.5; max-width: 200px; text-align: center;"><span class="edgeLabel"><p>serve /vcd/session</p></span></div></foreignObject></g></g><g class="edgeLabel"><g class="label" data-id="L_Browser_Surfer_0" transform="translate(0, 0)"><foreignObject width="0" height="0"><div xmlns="http://www.w3.org/1999/xhtml" class="labelBkg" style="display: table-cell; white-space: nowrap; line-height: 1.5; max-width: 200px; text-align: center;"><span class="edgeLabel"></span></div></foreignObject></g></g><g class="edgeLabel" transform="translate(711.4565238952637, 715.1650981903076)"><g class="label" data-id="L_Surfer_API_0" transform="translate(-59.3984375, -12)"><foreignObject width="118.796875" height="24"><div xmlns="http://www.w3.org/1999/xhtml" class="labelBkg" style="display: table-cell; white-space: nowrap; line-height: 1.5; max-width: 200px; text-align: center;"><span class="edgeLabel"><p>load waveform</p></span></div></foreignObject></g></g></g><g class="nodes"><g class="node default user" id="my-svg-flowchart-User-0" data-look="classic" transform="translate(38.599355697631836, 541.1169624328613)"><g class="basic label-container outer-path"><path d="M-11.109375 -19.5 C-2.4717873432840225 -19.5, 6.165800313431955 -19.5, 11.109375 -19.5 C11.109375 -19.5, 11.109375 -19.5, 11.109374999999998 -19.5 C11.38243244464054 -19.491243579224452, 11.65548988928108 -19.482487158448905, 12.3587442896239 -19.45993515863156 C12.796595590981076 -19.417696170182865, 13.234446892338251 -19.37545718173417, 13.602979652847864 -19.3399052695533 C13.898958218808108 -19.292053750356907, 14.19493678476835 -19.244202231160514, 14.836968259676757 -19.140403561325776 C15.297130814185593 -19.03537446110043, 15.757293368694429 -18.930345360875087, 16.05563938623539 -18.862249829261074 C16.474262248578604 -18.738004761113853, 16.892885110921817 -18.613759692966635, 17.253985251460602 -18.50658706670804 C17.49408416825781 -18.418228445876608, 17.734183085055022 -18.32986982504518, 18.427081595147794 -18.074876768247425 C18.796425563608093 -17.9113791496096, 19.165769532068392 -17.747881530971778, 19.57010791279238 -17.568892924097174 C19.817858986095064 -17.4396413478473, 20.065610059397745 -17.31038977159743, 20.678367264076783 -16.990714730406097 C21.023881313688715 -16.78126208306541, 21.369395363300647 -16.57180943572472, 21.747305573605697 -16.342718045390892 C21.98084650689199 -16.179810000154436, 22.21438744017828 -16.01690195491798, 22.772530344578712 -15.627565626425154 C23.05014510761651 -15.406175240541616, 23.327759870654305 -15.184784854658078, 23.74982870850187 -14.848196188198123 C24.010986411510476 -14.61101967217988, 24.272144114519083 -14.373843156161639, 24.675184736767985 -14.007812326905688 C24.895836950224968 -13.779970800627718, 25.11648916368195 -13.552129274349747, 25.544795942968648 -13.10986736009568 C25.8317016257795 -12.772851619670227, 26.11860730859035 -12.435835879244774, 26.355088908126582 -12.158051136245305 C26.605018088812024 -11.823168803143576, 26.854947269497465 -11.488286470041844, 27.102733964640635 -11.156274872382312 C27.304240802196745 -10.846706257733826, 27.505747639752855 -10.53713764308534, 27.784658878604247 -10.108655082055241 C27.90787521179621 -9.889872005466218, 28.03109154498817 -9.671088928877195, 28.3980614742735 -9.019496659696287 C28.562295007508677 -8.678462213898767, 28.726528540743857 -8.337427768101247, 28.94042114880834 -7.893275190886684 C29.09580297159595 -7.509479084498112, 29.251184794383562 -7.12568297810954, 29.409509229970325 -6.734618561215508 C29.56307338749649 -6.272107785872499, 29.716637545022657 -5.80959701052949, 29.80339813421488 -5.548287939305138 C29.911216701788874 -5.137129012282719, 30.01903526936287 -4.7259700852603, 30.12046928754556 -4.339158212148133 C30.183484587404216 -4.015587965662287, 30.246499887262868 -3.6920177191764405, 30.359419776581777 -3.1121979531509023 C30.409337399271198 -2.7250467289213067, 30.459255021960615 -2.3378955046917107, 30.519267702509367 -1.872449005199798 C30.53939306143301 -1.5589802950667244, 30.559518420356653 -1.2455115849336509, 30.599356215913414 -0.6250057626472757 C30.599356215913414 -0.27326362538014987, 30.599356215913414 0.07847851188697597, 30.599356215913414 0.625005762647271 C30.577127951164343 0.9712289284464128, 30.554899686415272 1.3174520942455548, 30.519267702509367 1.8724490051997846 C30.48479102525095 2.139843305826096, 30.45031434799253 2.4072376064524077, 30.359419776581777 3.1121979531508885 C30.29601397164465 3.437773360681422, 30.23260816670752 3.7633487682119555, 30.12046928754556 4.339158212148129 C29.99518496518357 4.816921631883192, 29.869900642821577 5.294685051618256, 29.803398134214884 5.548287939305125 C29.667342490648444 5.958065860204309, 29.531286847082 6.367843781103492, 29.40950922997033 6.734618561215495 C29.24137164403965 7.149921649183358, 29.073234058108966 7.565224737151221, 28.940421148808344 7.893275190886679 C28.735653131254043 8.318480360671888, 28.53088511369974 8.743685530457096, 28.398061474273504 9.019496659696284 C28.193813262487264 9.382160042096919, 27.98956505070102 9.744823424497552, 27.78465887860425 10.108655082055236 C27.640170129000605 10.330628602108309, 27.49568137939696 10.55260212216138, 27.10273396464064 11.156274872382301 C26.861272560339764 11.479811156559013, 26.619811156038885 11.803347440735724, 26.355088908126582 12.158051136245302 C26.187503015794803 12.354907061285624, 26.01991712346302 12.551762986325947, 25.54479594296866 13.10986736009567 C25.3431575592531 13.318075546101166, 25.14151917553754 13.526283732106663, 24.67518473676799 14.007812326905684 C24.474141405976166 14.190394560615776, 24.273098075184343 14.372976794325865, 23.749828708501887 14.848196188198111 C23.489665966566534 15.055669051670238, 23.229503224631177 15.263141915142363, 22.772530344578715 15.627565626425152 C22.384441443118277 15.89827964398618, 21.99635254165784 16.16899366154721, 21.747305573605708 16.34271804539089 C21.449601260958122 16.523188149222587, 21.151896948310537 16.703658253054286, 20.678367264076787 16.990714730406093 C20.279377910218546 17.198867220749058, 19.880388556360305 17.407019711092026, 19.570107912792388 17.56889292409717 C19.211977380467488 17.72742668719262, 18.853846848142588 17.885960450288067, 18.427081595147804 18.07487676824742 C18.03827165594309 18.217962419994436, 17.64946171673837 18.36104807174145, 17.253985251460616 18.506587066708033 C16.860309942601436 18.623427831933576, 16.466634633742252 18.740268597159115, 16.055639386235413 18.86224982926107 C15.59584183953764 18.967195618835436, 15.136044292839866 19.072141408409802, 14.836968259676766 19.140403561325773 C14.423705227125541 19.20721672352597, 14.010442194574319 19.274029885726172, 13.602979652847878 19.3399052695533 C13.180487894935407 19.380662541318436, 12.757996137022934 19.42141981308357, 12.3587442896239 19.45993515863156 C12.078740591714398 19.46891433222938, 11.798736893804897 19.477893505827204, 11.109375000000004 19.5 C11.109375000000002 19.5, 11.109375000000002 19.5, 11.109375 19.5 C4.794593966068203 19.5, -1.5201870678635938 19.5, -11.109374999999996 19.5 C-11.602204486308281 19.484195917608496, -12.095033972616568 19.46839183521699, -12.358744289623893 19.45993515863156 C-12.680126532570569 19.42893180017319, -13.001508775517246 19.39792844171482, -13.602979652847871 19.3399052695533 C-13.87024712412122 19.29669553748802, -14.137514595394572 19.253485805422738, -14.836968259676759 19.140403561325773 C-15.297790105051204 19.03522398226263, -15.758611950425648 18.930044403199485, -16.055639386235388 18.862249829261074 C-16.410227204592882 18.75701002604201, -16.764815022950373 18.651770222822947, -17.25398525146059 18.506587066708043 C-17.646442040658936 18.362159340452262, -18.03889882985728 18.21773161419648, -18.427081595147797 18.074876768247425 C-18.805885884043168 17.907191346383428, -19.184690172938534 17.739505924519435, -19.57010791279238 17.568892924097174 C-19.986417123706456 17.351704675422077, -20.40272633462053 17.13451642674698, -20.67836726407678 16.990714730406097 C-20.99937178895271 16.796119900994327, -21.32037631382864 16.60152507158256, -21.747305573605686 16.3427180453909 C-21.958586743777065 16.19533744729379, -22.169867913948444 16.047956849196684, -22.772530344578712 15.627565626425156 C-23.112162918442174 15.356717686771407, -23.451795492305635 15.085869747117657, -23.74982870850187 14.848196188198125 C-23.955156444299387 14.661722971221005, -24.16048418009691 14.475249754243887, -24.675184736767974 14.007812326905697 C-24.917198377470715 13.75791337319069, -25.15921201817346 13.508014419475682, -25.544795942968655 13.109867360095677 C-25.742122017882696 12.878076924329903, -25.939448092796734 12.646286488564128, -26.35508890812658 12.158051136245307 C-26.514546609637286 11.944392343116414, -26.674004311147993 11.730733549987523, -27.102733964640635 11.156274872382316 C-27.245652828812055 10.936713117926406, -27.388571692983472 10.717151363470498, -27.784658878604244 10.108655082055249 C-27.96601965685194 9.78663065550626, -28.147380435099638 9.464606228957269, -28.3980614742735 9.019496659696289 C-28.582472833708298 8.636562526058938, -28.7668841931431 8.253628392421586, -28.94042114880834 7.893275190886686 C-29.12052355562796 7.448418763999075, -29.300625962447576 7.003562337111465, -29.409509229970325 6.73461856121551 C-29.52058666337807 6.400071029576987, -29.631664096785816 6.0655234979384645, -29.80339813421488 5.5482879393051325 C-29.89234709696091 5.209086993630197, -29.981296059706946 4.869886047955261, -30.120469287545557 4.339158212148136 C-30.173671339434883 4.065976919954103, -30.226873391324208 3.7927956277600696, -30.359419776581777 3.112197953150904 C-30.39493243724061 2.836768769849046, -30.43044509789944 2.5613395865471884, -30.519267702509364 1.872449005199809 C-30.5446727380001 1.4767450708560694, -30.570077773490834 1.0810411365123298, -30.599356215913414 0.6250057626472781 C-30.599356215913414 0.296842435900819, -30.599356215913414 -0.03132089084564016, -30.599356215913414 -0.6250057626472687 C-30.58226979621847 -0.8911405413057965, -30.56518337652352 -1.1572753199643242, -30.519267702509367 -1.8724490051997822 C-30.46453155865085 -2.2969717280922746, -30.40979541479233 -2.721494450984767, -30.359419776581777 -3.112197953150895 C-30.310551751018732 -3.3631249361562694, -30.261683725455686 -3.6140519191616436, -30.12046928754556 -4.339158212148126 C-30.05542162285222 -4.587213149460056, -29.990373958158873 -4.835268086771987, -29.803398134214884 -5.548287939305123 C-29.68120021083722 -5.916328614923591, -29.55900228745955 -6.28436929054206, -29.409509229970332 -6.734618561215485 C-29.298714556258247 -7.008283547353633, -29.187919882546158 -7.281948533491781, -28.940421148808344 -7.893275190886676 C-28.799267474223747 -8.186383816366405, -28.658113799639146 -8.479492441846133, -28.398061474273504 -9.019496659696282 C-28.17521256220657 -9.415187468970428, -27.95236365013964 -9.810878278244576, -27.784658878604247 -10.108655082055243 C-27.61468899328493 -10.369774469210592, -27.444719107965607 -10.630893856365942, -27.10273396464064 -11.156274872382308 C-26.817670594479086 -11.538233818591522, -26.53260722431753 -11.920192764800733, -26.355088908126586 -12.158051136245302 C-26.18408716512404 -12.358919513850914, -26.013085422121495 -12.559787891456526, -25.544795942968662 -13.10986736009567 C-25.215086403727195 -13.450319529019083, -24.88537686448573 -13.790771697942496, -24.675184736767996 -14.007812326905677 C-24.444985071049857 -14.216873572561498, -24.214785405331718 -14.42593481821732, -23.749828708501887 -14.848196188198107 C-23.52419028862157 -15.028136823562136, -23.29855186874125 -15.208077458926166, -22.77253034457872 -15.627565626425149 C-22.41554117476129 -15.876585817477697, -22.058552004943863 -16.125606008530244, -21.74730557360571 -16.342718045390885 C-21.437214696853886 -16.530696957174104, -21.127123820102064 -16.718675868957323, -20.67836726407679 -16.99071473040609 C-20.271585069331916 -17.20293274084806, -19.864802874587046 -17.415150751290028, -19.570107912792388 -17.56889292409717 C-19.165403128551198 -17.748043726939866, -18.760698344310004 -17.927194529782557, -18.427081595147804 -18.07487676824742 C-18.001824444885177 -18.23137533057807, -17.576567294622553 -18.387873892908722, -17.25398525146062 -18.506587066708033 C-16.939580679883107 -18.599900693208966, -16.6251761083056 -18.693214319709895, -16.055639386235413 -18.862249829261067 C-15.766037438334179 -18.928349584040202, -15.476435490432944 -18.994449338819333, -14.836968259676768 -19.140403561325773 C-14.415447117609254 -19.208551830629972, -13.99392597554174 -19.276700099934168, -13.60297965284788 -19.3399052695533 C-13.142013299701397 -19.38437413924819, -12.681046946554913 -19.42884300894308, -12.358744289623903 -19.45993515863156 C-11.957247473795361 -19.472810380049037, -11.555750657966817 -19.485685601466514, -11.109375000000005 -19.5 C-11.109375000000004 -19.5, -11.109375000000002 -19.5, -11.109375 -19.5" stroke="none" stroke-width="0" fill="#eef5ff" style="fill:#eef5ff !important;stroke:#2f6fad !important"/><path d="M-11.109375 -19.5 C-2.6191445382109624 -19.5, 5.871085923578075 -19.5, 11.109375 -19.5 M-11.109375 -19.5 C-5.160001628610608 -19.5, 0.7893717427787834 -19.5, 11.109375 -19.5 M11.109375 -19.5 C11.109375 -19.5, 11.109374999999998 -19.5, 11.109374999999998 -19.5 M11.109375 -19.5 C11.109375 -19.5, 11.109374999999998 -19.5, 11.109374999999998 -19.5 M11.109374999999998 -19.5 C11.535044167923523 -19.486349618299464, 11.960713335847048 -19.47269923659893, 12.3587442896239 -19.45993515863156 M11.109374999999998 -19.5 C11.435634084937744 -19.48953750617083, 11.76189316987549 -19.47907501234166, 12.3587442896239 -19.45993515863156 M12.3587442896239 -19.45993515863156 C12.820316156248087 -19.41540787577971, 13.281888022872272 -19.37088059292786, 13.602979652847864 -19.3399052695533 M12.3587442896239 -19.45993515863156 C12.784846997060523 -19.41882954290863, 13.210949704497146 -19.3777239271857, 13.602979652847864 -19.3399052695533 M13.602979652847864 -19.3399052695533 C13.869031416269687 -19.2968920837055, 14.13508317969151 -19.2538788978577, 14.836968259676757 -19.140403561325776 M13.602979652847864 -19.3399052695533 C13.954569499725128 -19.28306294973017, 14.306159346602392 -19.226220629907036, 14.836968259676757 -19.140403561325776 M14.836968259676757 -19.140403561325776 C15.183701541532836 -19.061263952388245, 15.530434823388914 -18.982124343450714, 16.05563938623539 -18.862249829261074 M14.836968259676757 -19.140403561325776 C15.10392635408729 -19.07947211834094, 15.370884448497824 -19.018540675356107, 16.05563938623539 -18.862249829261074 M16.05563938623539 -18.862249829261074 C16.5253289257237 -18.722848439391647, 16.995018465212006 -18.583447049522224, 17.253985251460602 -18.50658706670804 M16.05563938623539 -18.862249829261074 C16.36523345611298 -18.77036393441384, 16.674827525990565 -18.67847803956661, 17.253985251460602 -18.50658706670804 M17.253985251460602 -18.50658706670804 C17.52674800871502 -18.406207850647125, 17.79951076596944 -18.30582863458621, 18.427081595147794 -18.074876768247425 M17.253985251460602 -18.50658706670804 C17.645463800715252 -18.36251934179429, 18.0369423499699 -18.218451616880536, 18.427081595147794 -18.074876768247425 M18.427081595147794 -18.074876768247425 C18.65704513385785 -17.973078731286485, 18.887008672567905 -17.87128069432555, 19.57010791279238 -17.568892924097174 M18.427081595147794 -18.074876768247425 C18.80603593138996 -17.907124924873997, 19.18499026763213 -17.739373081500574, 19.57010791279238 -17.568892924097174 M19.57010791279238 -17.568892924097174 C19.909582033542456 -17.391789492745414, 20.24905615429253 -17.21468606139365, 20.678367264076783 -16.990714730406097 M19.57010791279238 -17.568892924097174 C19.908317919638566 -17.39244898015937, 20.246527926484756 -17.21600503622156, 20.678367264076783 -16.990714730406097 M20.678367264076783 -16.990714730406097 C20.999187925044765 -16.79623136037583, 21.320008586012747 -16.601747990345565, 21.747305573605697 -16.342718045390892 M20.678367264076783 -16.990714730406097 C20.913175624756846 -16.84837252227475, 21.147983985436912 -16.7060303141434, 21.747305573605697 -16.342718045390892 M21.747305573605697 -16.342718045390892 C22.129021967459554 -16.076449213274806, 22.510738361313415 -15.810180381158723, 22.772530344578712 -15.627565626425154 M21.747305573605697 -16.342718045390892 C22.13984967529158 -16.068896273015106, 22.53239377697746 -15.795074500639318, 22.772530344578712 -15.627565626425154 M22.772530344578712 -15.627565626425154 C22.985537730128325 -15.457697904813925, 23.198545115677934 -15.287830183202695, 23.74982870850187 -14.848196188198123 M22.772530344578712 -15.627565626425154 C23.159925643260024 -15.318628184748656, 23.54732094194134 -15.009690743072156, 23.74982870850187 -14.848196188198123 M23.74982870850187 -14.848196188198123 C24.047403068368354 -14.577947027953496, 24.344977428234838 -14.30769786770887, 24.675184736767985 -14.007812326905688 M23.74982870850187 -14.848196188198123 C23.984078865145534 -14.635456393853858, 24.2183290217892 -14.422716599509592, 24.675184736767985 -14.007812326905688 M24.675184736767985 -14.007812326905688 C24.996853470294905 -13.67566295004497, 25.31852220382183 -13.34351357318425, 25.544795942968648 -13.10986736009568 M24.675184736767985 -14.007812326905688 C24.886641068223405 -13.789466303790288, 25.09809739967882 -13.571120280674887, 25.544795942968648 -13.10986736009568 M25.544795942968648 -13.10986736009568 C25.771889988845995 -12.843109771790875, 25.998984034723343 -12.576352183486069, 26.355088908126582 -12.158051136245305 M25.544795942968648 -13.10986736009568 C25.827623993269818 -12.77764143883996, 26.11045204357099 -12.44541551758424, 26.355088908126582 -12.158051136245305 M26.355088908126582 -12.158051136245305 C26.53999954261421 -11.910287731737235, 26.724910177101837 -11.662524327229162, 27.102733964640635 -11.156274872382312 M26.355088908126582 -12.158051136245305 C26.536755536827695 -11.914634403956157, 26.718422165528807 -11.671217671667009, 27.102733964640635 -11.156274872382312 M27.102733964640635 -11.156274872382312 C27.301971202747698 -10.850192971960348, 27.50120844085476 -10.544111071538385, 27.784658878604247 -10.108655082055241 M27.102733964640635 -11.156274872382312 C27.315879466928596 -10.828826143286623, 27.529024969216557 -10.501377414190936, 27.784658878604247 -10.108655082055241 M27.784658878604247 -10.108655082055241 C28.02018177742237 -9.690460325924036, 28.25570467624049 -9.272265569792829, 28.3980614742735 -9.019496659696287 M27.784658878604247 -10.108655082055241 C27.938505797783268 -9.83548429836303, 28.09235271696229 -9.562313514670818, 28.3980614742735 -9.019496659696287 M28.3980614742735 -9.019496659696287 C28.565107993600567 -8.672620988090697, 28.732154512927636 -8.325745316485108, 28.94042114880834 -7.893275190886684 M28.3980614742735 -9.019496659696287 C28.59105787348494 -8.618735507272316, 28.78405427269638 -8.217974354848346, 28.94042114880834 -7.893275190886684 M28.94042114880834 -7.893275190886684 C29.03659434163395 -7.655725545225236, 29.13276753445956 -7.4181758995637885, 29.409509229970325 -6.734618561215508 M28.94042114880834 -7.893275190886684 C29.040078919923992 -7.647118569479098, 29.13973669103964 -7.400961948071513, 29.409509229970325 -6.734618561215508 M29.409509229970325 -6.734618561215508 C29.552099743165645 -6.3051586541842175, 29.694690256360968 -5.875698747152927, 29.80339813421488 -5.548287939305138 M29.409509229970325 -6.734618561215508 C29.557926607223244 -6.287609068027444, 29.706343984476163 -5.840599574839379, 29.80339813421488 -5.548287939305138 M29.80339813421488 -5.548287939305138 C29.88059110162897 -5.253917698911513, 29.957784069043058 -4.959547458517888, 30.12046928754556 -4.339158212148133 M29.80339813421488 -5.548287939305138 C29.867197962799672 -5.3049915418907085, 29.930997791384463 -5.061695144476278, 30.12046928754556 -4.339158212148133 M30.12046928754556 -4.339158212148133 C30.17603345558784 -4.053847952742103, 30.23159762363012 -3.768537693336074, 30.359419776581777 -3.1121979531509023 M30.12046928754556 -4.339158212148133 C30.18237444049272 -4.021288335423192, 30.244279593439874 -3.7034184586982497, 30.359419776581777 -3.1121979531509023 M30.359419776581777 -3.1121979531509023 C30.406853100912805 -2.744314456408792, 30.454286425243833 -2.3764309596666817, 30.519267702509367 -1.872449005199798 M30.359419776581777 -3.1121979531509023 C30.416282068439696 -2.671185246230476, 30.473144360297614 -2.230172539310049, 30.519267702509367 -1.872449005199798 M30.519267702509367 -1.872449005199798 C30.539961814067492 -1.5501215136958175, 30.560655925625614 -1.227794022191837, 30.599356215913414 -0.6250057626472757 M30.519267702509367 -1.872449005199798 C30.541112484165083 -1.5321988981216248, 30.5629572658208 -1.1919487910434514, 30.599356215913414 -0.6250057626472757 M30.599356215913414 -0.6250057626472757 C30.599356215913414 -0.36363146348431713, 30.599356215913414 -0.10225716432135856, 30.599356215913414 0.625005762647271 M30.599356215913414 -0.6250057626472757 C30.599356215913414 -0.3385616825911903, 30.599356215913414 -0.05211760253510489, 30.599356215913414 0.625005762647271 M30.599356215913414 0.625005762647271 C30.578021189392825 0.9573160220288911, 30.556686162872236 1.289626281410511, 30.519267702509367 1.8724490051997846 M30.599356215913414 0.625005762647271 C30.572540138948074 1.042687806930155, 30.54572406198274 1.4603698512130387, 30.519267702509367 1.8724490051997846 M30.519267702509367 1.8724490051997846 C30.46472998099532 2.295432803571503, 30.410192259481267 2.718416601943222, 30.359419776581777 3.1121979531508885 M30.519267702509367 1.8724490051997846 C30.466479091559854 2.281867047433898, 30.413690480610345 2.6912850896680114, 30.359419776581777 3.1121979531508885 M30.359419776581777 3.1121979531508885 C30.271454475245065 3.5638811840418967, 30.18348917390835 4.015564414932905, 30.12046928754556 4.339158212148129 M30.359419776581777 3.1121979531508885 C30.290328331626288 3.466967920515261, 30.221236886670802 3.821737887879633, 30.12046928754556 4.339158212148129 M30.12046928754556 4.339158212148129 C30.016238514222156 4.736635324733191, 29.912007740898748 5.134112437318254, 29.803398134214884 5.548287939305125 M30.12046928754556 4.339158212148129 C30.046278354874115 4.622080392977971, 29.97208742220267 4.9050025738078125, 29.803398134214884 5.548287939305125 M29.803398134214884 5.548287939305125 C29.696603086028528 5.8699376089622515, 29.58980803784217 6.191587278619378, 29.40950922997033 6.734618561215495 M29.803398134214884 5.548287939305125 C29.646726645694184 6.020157500517719, 29.49005515717348 6.4920270617303135, 29.40950922997033 6.734618561215495 M29.40950922997033 6.734618561215495 C29.31493193207263 6.968226315550476, 29.220354634174928 7.201834069885457, 28.940421148808344 7.893275190886679 M29.40950922997033 6.734618561215495 C29.275709762041355 7.065105833836792, 29.14191029411238 7.395593106458088, 28.940421148808344 7.893275190886679 M28.940421148808344 7.893275190886679 C28.823559091779764 8.135941752753984, 28.706697034751183 8.378608314621289, 28.398061474273504 9.019496659696284 M28.940421148808344 7.893275190886679 C28.80643689216197 8.171496366616719, 28.672452635515594 8.449717542346757, 28.398061474273504 9.019496659696284 M28.398061474273504 9.019496659696284 C28.261149003564096 9.262598615331843, 28.12423653285469 9.5057005709674, 27.78465887860425 10.108655082055236 M28.398061474273504 9.019496659696284 C28.223901028604097 9.328736166639782, 28.049740582934692 9.637975673583282, 27.78465887860425 10.108655082055236 M27.78465887860425 10.108655082055236 C27.632764754318586 10.342005246241428, 27.480870630032918 10.575355410427619, 27.10273396464064 11.156274872382301 M27.78465887860425 10.108655082055236 C27.5847648920041 10.415745924524247, 27.384870905403947 10.72283676699326, 27.10273396464064 11.156274872382301 M27.10273396464064 11.156274872382301 C26.860052058787204 11.481446517449465, 26.617370152933766 11.80661816251663, 26.355088908126582 12.158051136245302 M27.10273396464064 11.156274872382301 C26.908571526967634 11.416434850302172, 26.714409089294623 11.676594828222045, 26.355088908126582 12.158051136245302 M26.355088908126582 12.158051136245302 C26.110711675645927 12.445110538975534, 25.866334443165268 12.732169941705767, 25.54479594296866 13.10986736009567 M26.355088908126582 12.158051136245302 C26.09459224750876 12.464045336486894, 25.834095586890935 12.770039536728486, 25.54479594296866 13.10986736009567 M25.54479594296866 13.10986736009567 C25.319089593854503 13.342927696391923, 25.09338324474035 13.575988032688176, 24.67518473676799 14.007812326905684 M25.54479594296866 13.10986736009567 C25.317964570592874 13.344089375275686, 25.091133198217086 13.578311390455701, 24.67518473676799 14.007812326905684 M24.67518473676799 14.007812326905684 C24.34644422269347 14.306365763790795, 24.017703708618953 14.604919200675907, 23.749828708501887 14.848196188198111 M24.67518473676799 14.007812326905684 C24.3813541577305 14.274661484456432, 24.08752357869301 14.541510642007182, 23.749828708501887 14.848196188198111 M23.749828708501887 14.848196188198111 C23.423064744977896 15.108781753554235, 23.096300781453905 15.369367318910358, 22.772530344578715 15.627565626425152 M23.749828708501887 14.848196188198111 C23.426665929123583 15.105909905029582, 23.103503149745283 15.363623621861054, 22.772530344578715 15.627565626425152 M22.772530344578715 15.627565626425152 C22.460129689041832 15.845482800121268, 22.147729033504948 16.063399973817383, 21.747305573605708 16.34271804539089 M22.772530344578715 15.627565626425152 C22.494948005744583 15.821195049650065, 22.21736566691045 16.014824472874977, 21.747305573605708 16.34271804539089 M21.747305573605708 16.34271804539089 C21.477390218495714 16.50634231985726, 21.207474863385716 16.669966594323633, 20.678367264076787 16.990714730406093 M21.747305573605708 16.34271804539089 C21.42006405482268 16.541093777161784, 21.09282253603965 16.73946950893268, 20.678367264076787 16.990714730406093 M20.678367264076787 16.990714730406093 C20.425591472188902 17.12258769912338, 20.17281568030102 17.254460667840668, 19.570107912792388 17.56889292409717 M20.678367264076787 16.990714730406093 C20.265340890196907 17.206190325103208, 19.852314516317023 17.421665919800326, 19.570107912792388 17.56889292409717 M19.570107912792388 17.56889292409717 C19.215233971620815 17.725985090892383, 18.860360030449247 17.883077257687596, 18.427081595147804 18.07487676824742 M19.570107912792388 17.56889292409717 C19.153517362471646 17.753305203004558, 18.73692681215091 17.937717481911942, 18.427081595147804 18.07487676824742 M18.427081595147804 18.07487676824742 C18.048691807487575 18.214127707903238, 17.670302019827346 18.353378647559058, 17.253985251460616 18.506587066708033 M18.427081595147804 18.07487676824742 C17.96039579451622 18.246621456876095, 17.493709993884636 18.418366145504766, 17.253985251460616 18.506587066708033 M17.253985251460616 18.506587066708033 C16.801892002388787 18.640765969946663, 16.349798753316957 18.774944873185294, 16.055639386235413 18.86224982926107 M17.253985251460616 18.506587066708033 C16.984550675953916 18.586553834427473, 16.71511610044722 18.666520602146917, 16.055639386235413 18.86224982926107 M16.055639386235413 18.86224982926107 C15.59105661633486 18.96828781480497, 15.126473846434308 19.074325800348873, 14.836968259676766 19.140403561325773 M16.055639386235413 18.86224982926107 C15.643985711995716 18.95620709411501, 15.232332037756022 19.05016435896895, 14.836968259676766 19.140403561325773 M14.836968259676766 19.140403561325773 C14.432760723016484 19.205752701176745, 14.028553186356204 19.271101841027715, 13.602979652847878 19.3399052695533 M14.836968259676766 19.140403561325773 C14.565880429065796 19.18423093946143, 14.294792598454825 19.22805831759709, 13.602979652847878 19.3399052695533 M13.602979652847878 19.3399052695533 C13.248226294803946 19.374127899350462, 12.893472936760013 19.408350529147626, 12.3587442896239 19.45993515863156 M13.602979652847878 19.3399052695533 C13.202433869705203 19.378545439526288, 12.80188808656253 19.41718560949928, 12.3587442896239 19.45993515863156 M12.3587442896239 19.45993515863156 C11.879091877735512 19.475316677894035, 11.399439465847124 19.490698197156515, 11.109375000000004 19.5 M12.3587442896239 19.45993515863156 C12.049180894804811 19.469862254174814, 11.739617499985723 19.479789349718065, 11.109375000000004 19.5 M11.109375000000004 19.5 C11.109375000000004 19.5, 11.109375000000002 19.5, 11.109375 19.5 M11.109375000000004 19.5 C11.109375000000002 19.5, 11.109375000000002 19.5, 11.109375 19.5 M11.109375 19.5 C2.675755666377267 19.5, -5.757863667245466 19.5, -11.109374999999996 19.5 M11.109375 19.5 C5.417370635923505 19.5, -0.27463372815299003 19.5, -11.109374999999996 19.5 M-11.109374999999996 19.5 C-11.584797027103777 19.48475414094362, -12.06021905420756 19.46950828188724, -12.358744289623893 19.45993515863156 M-11.109374999999996 19.5 C-11.407033293406474 19.490454677887175, -11.70469158681295 19.48090935577435, -12.358744289623893 19.45993515863156 M-12.358744289623893 19.45993515863156 C-12.752295745574841 19.421969722990845, -13.145847201525788 19.38400428735013, -13.602979652847871 19.3399052695533 M-12.358744289623893 19.45993515863156 C-12.624595000300845 19.43428886030481, -12.890445710977797 19.408642561978063, -13.602979652847871 19.3399052695533 M-13.602979652847871 19.3399052695533 C-13.964910152758105 19.28139115314076, -14.326840652668338 19.222877036728217, -14.836968259676759 19.140403561325773 M-13.602979652847871 19.3399052695533 C-13.919060931981527 19.2888036995899, -14.235142211115182 19.2377021296265, -14.836968259676759 19.140403561325773 M-14.836968259676759 19.140403561325773 C-15.209918586016695 19.055280083067007, -15.58286891235663 18.97015660480824, -16.055639386235388 18.862249829261074 M-14.836968259676759 19.140403561325773 C-15.215598082176498 19.053983775130707, -15.594227904676238 18.96756398893564, -16.055639386235388 18.862249829261074 M-16.055639386235388 18.862249829261074 C-16.33491652000739 18.779361841913136, -16.61419365377939 18.696473854565195, -17.25398525146059 18.506587066708043 M-16.055639386235388 18.862249829261074 C-16.446424773004356 18.7462667777424, -16.837210159773328 18.630283726223723, -17.25398525146059 18.506587066708043 M-17.25398525146059 18.506587066708043 C-17.52743671152911 18.405954401645243, -17.800888171597627 18.30532173658244, -18.427081595147797 18.074876768247425 M-17.25398525146059 18.506587066708043 C-17.573721418625396 18.388921201582665, -17.893457585790205 18.271255336457287, -18.427081595147797 18.074876768247425 M-18.427081595147797 18.074876768247425 C-18.66586052861533 17.969176417526743, -18.904639462082866 17.863476066806065, -19.57010791279238 17.568892924097174 M-18.427081595147797 18.074876768247425 C-18.66959524800003 17.96752316804165, -18.91210890085226 17.860169567835882, -19.57010791279238 17.568892924097174 M-19.57010791279238 17.568892924097174 C-20.00259340716524 17.343265518703035, -20.4350789015381 17.117638113308892, -20.67836726407678 16.990714730406097 M-19.57010791279238 17.568892924097174 C-19.900942689591 17.39629663295112, -20.23177746638962 17.22370034180507, -20.67836726407678 16.990714730406097 M-20.67836726407678 16.990714730406097 C-20.971743220548223 16.81286850152462, -21.265119177019663 16.63502227264314, -21.747305573605686 16.3427180453909 M-20.67836726407678 16.990714730406097 C-20.990153231066003 16.80170824495951, -21.30193919805523 16.61270175951292, -21.747305573605686 16.3427180453909 M-21.747305573605686 16.3427180453909 C-22.082436603806478 16.108945146311306, -22.417567634007266 15.875172247231712, -22.772530344578712 15.627565626425156 M-21.747305573605686 16.3427180453909 C-22.123772266828112 16.080111177179425, -22.500238960050535 15.817504308967953, -22.772530344578712 15.627565626425156 M-22.772530344578712 15.627565626425156 C-22.99882544663626 15.447101304499833, -23.22512054869381 15.26663698257451, -23.74982870850187 14.848196188198125 M-22.772530344578712 15.627565626425156 C-23.056189881113042 15.40135469453631, -23.339849417647375 15.175143762647464, -23.74982870850187 14.848196188198125 M-23.74982870850187 14.848196188198125 C-24.119266873591695 14.512682221461752, -24.48870503868152 14.177168254725377, -24.675184736767974 14.007812326905697 M-23.74982870850187 14.848196188198125 C-23.969226920282114 14.648944537217888, -24.18862513206236 14.449692886237651, -24.675184736767974 14.007812326905697 M-24.675184736767974 14.007812326905697 C-24.880922503342276 13.79537119153296, -25.086660269916575 13.582930056160222, -25.544795942968655 13.109867360095677 M-24.675184736767974 14.007812326905697 C-24.860496258301215 13.81646296656376, -25.045807779834455 13.625113606221824, -25.544795942968655 13.109867360095677 M-25.544795942968655 13.109867360095677 C-25.818201697662023 12.788709403404686, -26.09160745235539 12.467551446713696, -26.35508890812658 12.158051136245307 M-25.544795942968655 13.109867360095677 C-25.737122865716433 12.883949212924211, -25.92944978846421 12.658031065752745, -26.35508890812658 12.158051136245307 M-26.35508890812658 12.158051136245307 C-26.644318518921384 11.770509807139868, -26.93354812971619 11.38296847803443, -27.102733964640635 11.156274872382316 M-26.35508890812658 12.158051136245307 C-26.61370413890515 11.811530287334227, -26.872319369683723 11.465009438423147, -27.102733964640635 11.156274872382316 M-27.102733964640635 11.156274872382316 C-27.3113074096732 10.835850051000188, -27.519880854705768 10.51542522961806, -27.784658878604244 10.108655082055249 M-27.102733964640635 11.156274872382316 C-27.303240994488878 10.848242230859073, -27.50374802433712 10.54020958933583, -27.784658878604244 10.108655082055249 M-27.784658878604244 10.108655082055249 C-27.93186592255093 9.847274069198324, -28.079072966497613 9.585893056341398, -28.3980614742735 9.019496659696289 M-27.784658878604244 10.108655082055249 C-27.94674197771064 9.820860126898323, -28.10882507681704 9.533065171741399, -28.3980614742735 9.019496659696289 M-28.3980614742735 9.019496659696289 C-28.599542389229338 8.601117228789525, -28.801023304185172 8.182737797882758, -28.94042114880834 7.893275190886686 M-28.3980614742735 9.019496659696289 C-28.539885205432373 8.724996647403165, -28.68170893659125 8.43049663511004, -28.94042114880834 7.893275190886686 M-28.94042114880834 7.893275190886686 C-29.04268796898644 7.640674167852322, -29.144954789164537 7.388073144817958, -29.409509229970325 6.73461856121551 M-28.94042114880834 7.893275190886686 C-29.074381495399486 7.562390544859452, -29.208341841990627 7.23150589883222, -29.409509229970325 6.73461856121551 M-29.409509229970325 6.73461856121551 C-29.509749861554926 6.432709750058402, -29.609990493139527 6.130800938901294, -29.80339813421488 5.5482879393051325 M-29.409509229970325 6.73461856121551 C-29.55887706713438 6.2847464342103265, -29.708244904298432 5.834874307205142, -29.80339813421488 5.5482879393051325 M-29.80339813421488 5.5482879393051325 C-29.88809120997733 5.225316535211691, -29.972784285739777 4.902345131118251, -30.120469287545557 4.339158212148136 M-29.80339813421488 5.5482879393051325 C-29.88163282401579 5.249945159965229, -29.959867513816693 4.951602380625325, -30.120469287545557 4.339158212148136 M-30.120469287545557 4.339158212148136 C-30.19755538679001 3.943337384680707, -30.27464148603447 3.547516557213278, -30.359419776581777 3.112197953150904 M-30.120469287545557 4.339158212148136 C-30.181759994584816 4.024443385297074, -30.24305070162407 3.7097285584460122, -30.359419776581777 3.112197953150904 M-30.359419776581777 3.112197953150904 C-30.41067869023744 2.714643941054988, -30.4619376038931 2.3170899289590716, -30.519267702509364 1.872449005199809 M-30.359419776581777 3.112197953150904 C-30.39161689785575 2.862483438590703, -30.423814019129725 2.6127689240305014, -30.519267702509364 1.872449005199809 M-30.519267702509364 1.872449005199809 C-30.544421451279 1.480659064372182, -30.569575200048632 1.0888691235445551, -30.599356215913414 0.6250057626472781 M-30.519267702509364 1.872449005199809 C-30.536275425473924 1.6075399916399122, -30.55328314843848 1.3426309780800154, -30.599356215913414 0.6250057626472781 M-30.599356215913414 0.6250057626472781 C-30.599356215913414 0.22737940615943653, -30.599356215913414 -0.1702469503284051, -30.599356215913414 -0.6250057626472687 M-30.599356215913414 0.6250057626472781 C-30.599356215913414 0.31209007091226265, -30.599356215913414 -0.0008256208227528372, -30.599356215913414 -0.6250057626472687 M-30.599356215913414 -0.6250057626472687 C-30.58023984835731 -0.9227586177877585, -30.561123480801207 -1.2205114729282482, -30.519267702509367 -1.8724490051997822 M-30.599356215913414 -0.6250057626472687 C-30.57812428358373 -0.9557102467894174, -30.556892351254046 -1.286414730931566, -30.519267702509367 -1.8724490051997822 M-30.519267702509367 -1.8724490051997822 C-30.48563060837185 -2.133331664934842, -30.451993514234328 -2.3942143246699015, -30.359419776581777 -3.112197953150895 M-30.519267702509367 -1.8724490051997822 C-30.47831526164567 -2.190068049564487, -30.43736282078197 -2.5076870939291913, -30.359419776581777 -3.112197953150895 M-30.359419776581777 -3.112197953150895 C-30.276784390760117 -3.5365131943501513, -30.194149004938453 -3.960828435549408, -30.12046928754556 -4.339158212148126 M-30.359419776581777 -3.112197953150895 C-30.272471827794945 -3.5586572937157985, -30.185523879008112 -4.005116634280702, -30.12046928754556 -4.339158212148126 M-30.12046928754556 -4.339158212148126 C-29.994568309816817 -4.819273206056748, -29.86866733208807 -5.299388199965369, -29.803398134214884 -5.548287939305123 M-30.12046928754556 -4.339158212148126 C-30.040325442902155 -4.644781426335424, -29.960181598258746 -4.950404640522723, -29.803398134214884 -5.548287939305123 M-29.803398134214884 -5.548287939305123 C-29.68293927685323 -5.911090825165902, -29.562480419491575 -6.27389371102668, -29.409509229970332 -6.734618561215485 M-29.803398134214884 -5.548287939305123 C-29.691271672975734 -5.885994975631945, -29.579145211736588 -6.223702011958768, -29.409509229970332 -6.734618561215485 M-29.409509229970332 -6.734618561215485 C-29.302297060600203 -6.999434692365985, -29.195084891230078 -7.264250823516484, -28.940421148808344 -7.893275190886676 M-29.409509229970332 -6.734618561215485 C-29.28238763649918 -7.048611354818046, -29.155266043028025 -7.362604148420608, -28.940421148808344 -7.893275190886676 M-28.940421148808344 -7.893275190886676 C-28.77446611018428 -8.237884379458533, -28.608511071560216 -8.582493568030392, -28.398061474273504 -9.019496659696282 M-28.940421148808344 -7.893275190886676 C-28.810662772158437 -8.162721236384703, -28.680904395508527 -8.43216728188273, -28.398061474273504 -9.019496659696282 M-28.398061474273504 -9.019496659696282 C-28.194373414046545 -9.381165436281915, -27.990685353819586 -9.74283421286755, -27.784658878604247 -10.108655082055243 M-28.398061474273504 -9.019496659696282 C-28.226721798523123 -9.323727604014627, -28.05538212277274 -9.627958548332971, -27.784658878604247 -10.108655082055243 M-27.784658878604247 -10.108655082055243 C-27.590785208291805 -10.406497102025051, -27.396911537979367 -10.70433912199486, -27.10273396464064 -11.156274872382308 M-27.784658878604247 -10.108655082055243 C-27.580352856407682 -10.422523995997793, -27.376046834211117 -10.736392909940342, -27.10273396464064 -11.156274872382308 M-27.10273396464064 -11.156274872382308 C-26.871418739562206 -11.466216200736893, -26.640103514483766 -11.776157529091476, -26.355088908126586 -12.158051136245302 M-27.10273396464064 -11.156274872382308 C-26.920016349108916 -11.401099831277605, -26.737298733577195 -11.645924790172902, -26.355088908126586 -12.158051136245302 M-26.355088908126586 -12.158051136245302 C-26.175660267797106 -12.368818226955174, -25.996231627467626 -12.579585317665046, -25.544795942968662 -13.10986736009567 M-26.355088908126586 -12.158051136245302 C-26.09183895694628 -12.467279508248257, -25.828589005765973 -12.776507880251213, -25.544795942968662 -13.10986736009567 M-25.544795942968662 -13.10986736009567 C-25.29709553234401 -13.365638370647545, -25.049395121719353 -13.62140938119942, -24.675184736767996 -14.007812326905677 M-25.544795942968662 -13.10986736009567 C-25.234025320598032 -13.43076354243595, -24.923254698227407 -13.751659724776228, -24.675184736767996 -14.007812326905677 M-24.675184736767996 -14.007812326905677 C-24.395104979286483 -14.262173352146087, -24.11502522180497 -14.516534377386497, -23.749828708501887 -14.848196188198107 M-24.675184736767996 -14.007812326905677 C-24.346316387854394 -14.30648186000932, -24.01744803894079 -14.605151393112964, -23.749828708501887 -14.848196188198107 M-23.749828708501887 -14.848196188198107 C-23.378582768411867 -15.14425494615053, -23.007336828321847 -15.440313704102955, -22.77253034457872 -15.627565626425149 M-23.749828708501887 -14.848196188198107 C-23.395637889547718 -15.130653940900524, -23.04144707059355 -15.413111693602941, -22.77253034457872 -15.627565626425149 M-22.77253034457872 -15.627565626425149 C-22.365527015551706 -15.911473529864248, -21.95852368652469 -16.195381433303346, -21.74730557360571 -16.342718045390885 M-22.77253034457872 -15.627565626425149 C-22.441573797810623 -15.858426586572572, -22.110617251042527 -16.089287546719994, -21.74730557360571 -16.342718045390885 M-21.74730557360571 -16.342718045390885 C-21.39570000208178 -16.555863409112384, -21.04409443055785 -16.769008772833878, -20.67836726407679 -16.99071473040609 M-21.74730557360571 -16.342718045390885 C-21.374815870823756 -16.568523492209774, -21.0023261680418 -16.794328939028663, -20.67836726407679 -16.99071473040609 M-20.67836726407679 -16.99071473040609 C-20.266712249848958 -17.20547488765113, -19.855057235621125 -17.42023504489617, -19.570107912792388 -17.56889292409717 M-20.67836726407679 -16.99071473040609 C-20.38333093784111 -17.14463499282346, -20.08829461160543 -17.298555255240828, -19.570107912792388 -17.56889292409717 M-19.570107912792388 -17.56889292409717 C-19.20967678008876 -17.728445094735395, -18.849245647385132 -17.88799726537362, -18.427081595147804 -18.07487676824742 M-19.570107912792388 -17.56889292409717 C-19.177757987574157 -17.74257459734427, -18.785408062355927 -17.916256270591372, -18.427081595147804 -18.07487676824742 M-18.427081595147804 -18.07487676824742 C-17.98838212918995 -18.23632222701332, -17.549682663232097 -18.39776768577922, -17.25398525146062 -18.506587066708033 M-18.427081595147804 -18.07487676824742 C-18.120226997438312 -18.18780209673732, -17.81337239972882 -18.30072742522722, -17.25398525146062 -18.506587066708033 M-17.25398525146062 -18.506587066708033 C-16.821647308451716 -18.634902698804904, -16.389309365442816 -18.763218330901772, -16.055639386235413 -18.862249829261067 M-17.25398525146062 -18.506587066708033 C-16.81707788522141 -18.636258879634266, -16.380170518982197 -18.7659306925605, -16.055639386235413 -18.862249829261067 M-16.055639386235413 -18.862249829261067 C-15.595434379459848 -18.967288618939264, -15.13522937268428 -19.072327408617465, -14.836968259676768 -19.140403561325773 M-16.055639386235413 -18.862249829261067 C-15.759688047462436 -18.92979879107303, -15.463736708689462 -18.997347752884988, -14.836968259676768 -19.140403561325773 M-14.836968259676768 -19.140403561325773 C-14.530177021417035 -19.19000318952602, -14.223385783157305 -19.23960281772627, -13.60297965284788 -19.3399052695533 M-14.836968259676768 -19.140403561325773 C-14.441553580529567 -19.204331140163656, -14.046138901382365 -19.268258719001544, -13.60297965284788 -19.3399052695533 M-13.60297965284788 -19.3399052695533 C-13.195756433118158 -19.37918960380305, -12.788533213388435 -19.4184739380528, -12.358744289623903 -19.45993515863156 M-13.60297965284788 -19.3399052695533 C-13.187654532852537 -19.379971184377712, -12.772329412857196 -19.420037099202126, -12.358744289623903 -19.45993515863156 M-12.358744289623903 -19.45993515863156 C-12.107095774371667 -19.468005036711578, -11.85544725911943 -19.476074914791596, -11.109375000000005 -19.5 M-12.358744289623903 -19.45993515863156 C-11.945694192420177 -19.473180871295643, -11.53264409521645 -19.486426583959723, -11.109375000000005 -19.5 M-11.109375000000005 -19.5 C-11.109375000000004 -19.5, -11.109375000000002 -19.5, -11.109375 -19.5 M-11.109375000000005 -19.5 C-11.109375000000004 -19.5, -11.109375000000002 -19.5, -11.109375 -19.5" stroke="#2f6fad" stroke-width="1.3" fill="none" stroke-dasharray="0 0" style="fill:#eef5ff !important;stroke:#2f6fad !important"/></g><g class="label" style="color:#17202a !important" transform="translate(-18.234375, -12)"><rect/><foreignObject width="36.46875" height="24"><div style="color: rgb(23, 32, 42) !important; display: table-cell; white-space: nowrap; line-height: 1.5; max-width: 200px; text-align: center;" xmlns="http://www.w3.org/1999/xhtml"><span style="color:#17202a !important" class="nodeLabel"><p>User</p></span></div></foreignObject></g></g><g class="node default user" id="my-svg-flowchart-Browser-1" data-look="classic" transform="translate(249.19871139526367, 541.1169624328613)"><rect class="basic label-container" style="fill:#eef5ff !important;stroke:#2f6fad !important" x="-130" y="-51" width="260" height="102"/><g class="label" style="color:#17202a !important" transform="translate(-100, -36)"><rect/><foreignObject width="200" height="72"><div style="color: rgb(23, 32, 42) !important; display: table; white-space: break-spaces; line-height: 1.5; max-width: 200px; text-align: center; width: 200px;" xmlns="http://www.w3.org/1999/xhtml"><span style="color:#17202a !important" class="nodeLabel"><p>Browser IDE<br />editor, pipeline, registers, logs</p></span></div></foreignObject></g></g><g class="node default python" id="my-svg-flowchart-API-2" data-look="classic" transform="translate(946.8080863952637, 500.1650981903076)"><rect class="basic label-container" style="fill:#e8f1fb !important;stroke:#4a90e2 !important" x="-78.3203125" y="-39" width="156.640625" height="78"/><g class="label" style="color:#17202a !important" transform="translate(-48.3203125, -24)"><rect/><foreignObject width="96.640625" height="48"><div style="color: rgb(23, 32, 42) !important; display: table-cell; white-space: nowrap; line-height: 1.5; max-width: 200px; text-align: center;" xmlns="http://www.w3.org/1999/xhtml"><span style="color:#17202a !important" class="nodeLabel"><p>FastAPI<br />HTTP routes</p></span></div></foreignObject></g></g><g class="node default python" id="my-svg-flowchart-WS-3" data-look="classic" transform="translate(946.8080863952637, 631.1169624328613)"><rect class="basic label-container" style="fill:#e8f1fb !important;stroke:#4a90e2 !important" x="-125.953125" y="-39" width="251.90625" height="78"/><g class="label" style="color:#17202a !important" transform="translate(-95.953125, -24)"><rect/><foreignObject width="191.90625" height="48"><div style="color: rgb(23, 32, 42) !important; display: table-cell; white-space: nowrap; line-height: 1.5; max-width: 200px; text-align: center;" xmlns="http://www.w3.org/1999/xhtml"><span style="color:#17202a !important" class="nodeLabel"><p>Socket.IO<br />rooms and cycle control</p></span></div></foreignObject></g></g><g class="node default python" id="my-svg-flowchart-Detect-4" data-look="classic" transform="translate(1238.5971488952637, 419.1650981903076)"><rect class="basic label-container" style="fill:#e8f1fb !important;stroke:#4a90e2 !important" x="-106.9453125" y="-39" width="213.890625" height="78"/><g class="label" style="color:#17202a !important" transform="translate(-76.9453125, -24)"><rect/><foreignObject width="153.890625" height="48"><div style="color: rgb(23, 32, 42) !important; display: table-cell; white-space: nowrap; line-height: 1.5; max-width: 200px; text-align: center;" xmlns="http://www.w3.org/1999/xhtml"><span style="color:#17202a !important" class="nodeLabel"><p>Upload filtering<br />and level detection</p></span></div></foreignObject></g></g><g class="node default python" id="my-svg-flowchart-Enrich-5" data-look="classic" transform="translate(1238.5971488952637, 631.1169624328613)"><rect class="basic label-container" style="fill:#e8f1fb !important;stroke:#4a90e2 !important" x="-115.8359375" y="-39" width="231.671875" height="78"/><g class="label" style="color:#17202a !important" transform="translate(-85.8359375, -24)"><rect/><foreignObject width="171.671875" height="48"><div style="color: rgb(23, 32, 42) !important; display: table-cell; white-space: nowrap; line-height: 1.5; max-width: 200px; text-align: center;" xmlns="http://www.w3.org/1999/xhtml"><span style="color:#17202a !important" class="nodeLabel"><p>Snapshot enrichment<br />and history</p></span></div></foreignObject></g></g><g class="node default python" id="my-svg-flowchart-Bridge-6" data-look="classic" transform="translate(1656.9799613952637, 631.1169624328613)"><rect class="basic label-container" style="fill:#e8f1fb !important;stroke:#4a90e2 !important" x="-80.2734375" y="-39" width="160.546875" height="78"/><g class="label" style="color:#17202a !important" transform="translate(-50.2734375, -24)"><rect/><foreignObject width="100.546875" height="48"><div style="color: rgb(23, 32, 42) !important; display: table-cell; white-space: nowrap; line-height: 1.5; max-width: 200px; text-align: center;" xmlns="http://www.w3.org/1999/xhtml"><span style="color:#17202a !important" class="nodeLabel"><p>ChiselBridge<br />TCP client</p></span></div></foreignObject></g></g><g class="node default data" id="my-svg-flowchart-Workspace-7" data-look="classic" transform="translate(1656.9799613952637, 110.2132339477539)"><path d="M0,15.808823529411764 a107.5,15.808823529411764 0,0,0 215,0 a107.5,15.808823529411764 0,0,0 -215,0 l0,102.80882352941177 a107.5,15.808823529411764 0,0,0 215,0 l0,-102.80882352941177" class="basic label-container outer-path" style="fill:#fff5df !important;stroke:#b9852d !important" transform="translate(-107.5, -67.21323529411765)"/><g class="label" style="color:#17202a !important" transform="translate(-100, -26)"><rect/><foreignObject width="200" height="72"><div style="color: rgb(23, 32, 42) !important; display: table; white-space: break-spaces; line-height: 1.5; max-width: 200px; text-align: center; width: 200px;" xmlns="http://www.w3.org/1999/xhtml"><span style="color:#17202a !important" class="nodeLabel"><p>Session workspace<br />uploaded Scala + BinaryFile</p></span></div></foreignObject></g></g><g class="node default session" id="my-svg-flowchart-SBT-8" data-look="classic" transform="translate(2065.7455863952637, 111.2132339477539)"><rect class="basic label-container" style="fill:#eef8ee !important;stroke:#4f8a4f !important" x="-68.3671875" y="-39" width="136.734375" height="78"/><g class="label" style="color:#17202a !important" transform="translate(-38.3671875, -24)"><rect/><foreignObject width="76.734375" height="48"><div style="color: rgb(23, 32, 42) !important; display: table-cell; white-space: nowrap; line-height: 1.5; max-width: 200px; text-align: center;" xmlns="http://www.w3.org/1999/xhtml"><span style="color:#17202a !important" class="nodeLabel"><p>SBT 1.9.7<br />chiseltest</p></span></div></foreignObject></g></g><g class="node default session" id="my-svg-flowchart-Test-9" data-look="classic" transform="translate(2324.4174613952637, 111.2132339477539)"><rect class="basic label-container" style="fill:#eef8ee !important;stroke:#4f8a4f !important" x="-130" y="-51" width="260" height="102"/><g class="label" style="color:#17202a !important" transform="translate(-100, -36)"><rect/><foreignObject width="200" height="72"><div style="color: rgb(23, 32, 42) !important; display: table; white-space: break-spaces; line-height: 1.5; max-width: 200px; text-align: center; width: 200px;" xmlns="http://www.w3.org/1999/xhtml"><span style="color:#17202a !important" class="nodeLabel"><p>LivePipelineTest<br />TCP server + VCD generation</p></span></div></foreignObject></g></g><g class="node default session" id="my-svg-flowchart-Core-10" data-look="classic" transform="translate(2599.1830863952637, 96.10661697387695)"><rect class="basic label-container" style="fill:#eef8ee !important;stroke:#4f8a4f !important" x="-94.765625" y="-39" width="189.53125" height="78"/><g class="label" style="color:#17202a !important" transform="translate(-64.765625, -24)"><rect/><foreignObject width="129.53125" height="48"><div style="color: rgb(23, 32, 42) !important; display: table-cell; white-space: nowrap; line-height: 1.5; max-width: 200px; text-align: center;" xmlns="http://www.w3.org/1999/xhtml"><span style="color:#17202a !important" class="nodeLabel"><p>Uploaded Chisel<br />processor</p></span></div></foreignObject></g></g><g class="node default data" id="my-svg-flowchart-VCD-11" data-look="classic" transform="translate(2599.1830863952637, 227.16509819030762)"><path d="M0,12.935818554711062 a67.015625,12.935818554711062 0,0,0 134.03125,0 a67.015625,12.935818554711062 0,0,0 -134.03125,0 l0,51.93581855471106 a67.015625,12.935818554711062 0,0,0 134.03125,0 l0,-51.93581855471106" class="basic label-container outer-path" style="fill:#fff5df !important;stroke:#b9852d !important" transform="translate(-67.015625, -38.90372783206659)"/><g class="label" style="color:#17202a !important" transform="translate(-59.515625, -2)"><rect/><foreignObject width="119.03125" height="24"><div style="color: rgb(23, 32, 42) !important; display: table-cell; white-space: nowrap; line-height: 1.5; max-width: 200px; text-align: center;" xmlns="http://www.w3.org/1999/xhtml"><span style="color:#17202a !important" class="nodeLabel"><p>VCD waveform</p></span></div></foreignObject></g></g><g class="node default user" id="my-svg-flowchart-Surfer-37" data-look="classic" transform="translate(528.1283988952637, 715.1650981903076)"><rect class="basic label-container" style="fill:#eef5ff !important;stroke:#2f6fad !important" x="-98.9296875" y="-39" width="197.859375" height="78"/><g class="label" style="color:#17202a !important" transform="translate(-68.9296875, -24)"><rect/><foreignObject width="137.859375" height="48"><div style="color: rgb(23, 32, 42) !important; display: table-cell; white-space: nowrap; line-height: 1.5; max-width: 200px; text-align: center;" xmlns="http://www.w3.org/1999/xhtml"><span style="color:#17202a !important" class="nodeLabel"><p>Bundled Surfer<br />waveform viewer</p></span></div></foreignObject></g></g></g></g></g><defs><filter id="my-svg-drop-shadow" height="130%" width="130%"><feDropShadow dx="4" dy="4" stdDeviation="0" flood-opacity="0.06" flood-color="#000000"/></filter></defs><defs><filter id="my-svg-drop-shadow-small" height="150%" width="150%"><feDropShadow dx="2" dy="2" stdDeviation="0" flood-opacity="0.06" flood-color="#000000"/></filter></defs><linearGradient id="my-svg-gradient" gradientUnits="objectBoundingBox" x1="0%" y1="0%" x2="100%" y2="0%"><stop offset="0%" stop-color="hsl(0, 0%, 83.3333333333%)" stop-opacity="1"/><stop offset="100%" stop-color="hsl(0, 0%, 88.9215686275%)" stop-opacity="1"/></linearGradient></svg>